<svg width="65" height="93" viewBox="0 0 65 93" fill="none" xmlns="http://www.w3.org/2000/svg">
<path d="M50.2096 22.5249H35.4896V12.5409C39.5003 12.5409 42.7003 12.1995 45.0896 11.5169C47.5643 10.8342 49.527 9.72486 50.9776 8.18886C52.4283 6.56753 53.7083 4.26352 54.8176 1.27686H64.2896V90.8769H50.2096V22.5249Z" fill="#242424"/>
<path d="M0 0C6.71617 0.07466 11.8735 2.03566 15.4717 5.88477C19.141 9.8101 20.9756 15.3574 20.9756 22.5254V69.6289C20.9756 76.7969 19.141 82.3442 15.4717 86.2695C11.8735 90.1186 6.71612 92.0787 0 92.1533V79.3486C4.59697 79.1893 6.89542 76.2493 6.89551 70.5254V21.6289C6.89546 15.9049 4.59703 12.964 0 12.8047V0Z" fill="#242424"/>
</svg>
