<svg width="76" height="93" viewBox="0 0 76 93" fill="none" xmlns="http://www.w3.org/2000/svg">
<path d="M33.2416 81.152C33.2416 74.752 34.2656 69.2907 36.3136 64.768C38.3616 60.16 42.0309 55.0827 47.3216 49.536C52.5269 43.9893 56.1109 39.2533 58.0736 35.328C60.1216 31.4027 61.1456 27.3067 61.1456 23.04C61.1456 19.2 60.5056 16.5547 59.2256 15.104C58.0309 13.568 56.2389 12.8 53.8496 12.8C48.9856 12.8 46.5536 15.744 46.5536 21.632V31.232H33.2416V22.528C33.2416 15.2747 35.0336 9.728 38.6176 5.888C42.2016 1.96267 47.4069 0 54.2336 0C61.0602 0 66.2656 1.96267 69.8496 5.888C73.4336 9.728 75.2256 15.2747 75.2256 22.528C75.2256 27.9893 73.9029 33.3227 71.2576 38.528C68.6976 43.7333 64.2176 49.7067 57.8176 56.448C53.6362 60.8853 50.8202 64.512 49.3696 67.328C47.9189 70.0587 47.1936 73.0027 47.1936 76.16V78.08H73.9456V90.88H33.2416V81.152Z" fill="#242424"/>
<path d="M0 0.00292969C6.71617 0.0775897 11.8735 2.03859 15.4717 5.8877C19.141 9.81303 20.9756 15.3603 20.9756 22.5283V69.6318C20.9756 76.7998 19.141 82.3471 15.4717 86.2725C11.8735 90.1215 6.71612 92.0816 0 92.1562V79.3516C4.59697 79.1923 6.89542 76.2523 6.89551 70.5283V21.6318C6.89546 15.9078 4.59703 12.9669 0 12.8076V0.00292969Z" fill="#242424"/>
</svg>
