<svg width="77" height="93" viewBox="0 0 77 93" fill="none" xmlns="http://www.w3.org/2000/svg">
<path d="M55.4656 92.16C48.5536 92.16 43.3056 90.24 39.7216 86.4C36.223 82.56 34.4736 77.056 34.4736 69.888V62.592H47.7856V70.528C47.7856 76.416 50.2176 79.36 55.0816 79.36C57.471 79.36 59.263 78.6347 60.4576 77.184C61.7376 75.648 62.3776 73.0027 62.3776 69.248V61.952C62.3776 57.856 61.6523 54.9547 60.2016 53.248C58.751 51.456 56.4043 50.56 53.1616 50.56H48.4256V37.76H53.5456C56.3616 37.76 58.4523 37.0347 59.8176 35.584C61.2683 34.1333 61.9936 31.7013 61.9936 28.288V21.76C61.9936 18.688 61.3536 16.4267 60.0736 14.976C58.7936 13.5253 57.087 12.8 54.9536 12.8C50.431 12.8 48.1696 15.5733 48.1696 21.12V27.008H34.8576V22.272C34.8576 15.104 36.607 9.6 40.1056 5.76C43.6896 1.92 48.8096 0 55.4656 0C62.207 0 67.327 1.92 70.8256 5.76C74.3243 9.51467 76.0736 14.976 76.0736 22.144V25.344C76.0736 30.208 75.263 34.1333 73.6416 37.12C72.0203 40.0213 69.503 42.112 66.0896 43.392V43.648C69.759 45.0133 72.4043 47.232 74.0256 50.304C75.647 53.376 76.4576 57.3013 76.4576 62.08V70.016C76.4576 77.184 74.6656 82.688 71.0816 86.528C67.583 90.2827 62.3776 92.16 55.4656 92.16Z" fill="#242424"/>
<path d="M0 0.00292969C6.71617 0.0775897 11.8735 2.03859 15.4717 5.8877C19.141 9.81303 20.9756 15.3603 20.9756 22.5283V69.6318C20.9756 76.7998 19.141 82.3471 15.4717 86.2725C11.8735 90.1215 6.71612 92.0816 0 92.1562V79.3516C4.59697 79.1923 6.89542 76.2523 6.89551 70.5283V21.6318C6.89546 15.9078 4.59703 12.9669 0 12.8076V0.00292969Z" fill="#242424"/>
</svg>
