<svg width="32" height="32" viewBox="0 0 32 32" fill="none" xmlns="http://www.w3.org/2000/svg">
<mask id="mask0_165_559" style="mask-type:luminance" maskUnits="userSpaceOnUse" x="0" y="0" width="32" height="32">
<path d="M15.8793 31.7585C24.6491 31.7585 31.7585 24.6491 31.7585 15.8793C31.7585 7.10939 24.6491 0 15.8793 0C7.10939 0 0 7.10939 0 15.8793C0 24.6491 7.10939 31.7585 15.8793 31.7585Z" fill="white"/>
</mask>
<g mask="url(#mask0_165_559)">
<path d="M32.4121 -0.0966797H-0.653564V31.8591H32.4121V-0.0966797Z" fill="#009B3A"/>
<path d="M0.568481 15.8793L15.8792 25.6559L31.19 15.8793L15.8792 6.10265L0.568481 15.8793Z" fill="#FEDF00"/>
<path d="M22.678 15.8793C22.678 16.2041 22.6548 16.5212 22.6123 16.8306C22.5581 17.2019 22.4808 17.5577 22.3725 17.9057C21.5101 20.6709 18.9306 22.6742 15.8831 22.6742C12.1279 22.6742 9.08435 19.6306 9.08435 15.8754C9.08435 15.2837 9.15783 14.7113 9.30092 14.166C9.39374 13.8064 9.51362 13.4583 9.66445 13.1257C10.7202 10.7396 13.1064 9.07663 15.8831 9.07663C19.6383 9.07663 22.6819 12.1202 22.6819 15.8754L22.678 15.8793Z" fill="#002776"/>
<path d="M22.6123 16.8345C22.5581 17.2058 22.4808 17.5616 22.3725 17.9096C19.6228 15.4423 15.9837 13.9379 11.9964 13.9379C11.076 13.9379 10.1749 14.0191 9.3009 14.1699C9.39372 13.8102 9.51361 13.4622 9.66443 13.1296C10.4263 13.0213 11.2075 12.9672 12.0003 12.9672C16.0417 12.9672 19.7466 14.4213 22.6161 16.8306L22.6123 16.8345Z" fill="white"/>
<path fill-rule="evenodd" clip-rule="evenodd" d="M10.0821 13.8953C10.2407 13.876 10.3528 13.7174 10.3335 13.5395C10.3103 13.3616 10.1633 13.234 10.0048 13.2533C9.8462 13.2727 9.73405 13.4312 9.75339 13.6091C9.77273 13.787 9.92355 13.9147 10.0821 13.8953ZM10.0666 13.7754C10.1595 13.7638 10.2252 13.6633 10.2097 13.5511C10.1943 13.439 10.1092 13.3578 10.0164 13.3694C9.92355 13.381 9.85781 13.4815 9.87328 13.5937C9.88874 13.7058 9.97383 13.787 10.0666 13.7754Z" fill="#009B3A"/>
<path d="M11.0721 13.5318C11.1301 13.4931 11.1649 13.4235 11.1572 13.35C11.1495 13.2379 11.0528 13.1528 10.9406 13.1605L10.5732 13.1876L10.608 13.8334L10.7279 13.8257L10.7125 13.5859L10.9677 13.5666C11.0335 13.6285 11.0412 13.7406 11.0451 13.8025L11.1572 13.7948C11.1533 13.7213 11.1417 13.5821 11.0721 13.5318ZM10.7047 13.466L10.6931 13.2997L10.9406 13.2804C10.987 13.2804 11.0257 13.3113 11.0296 13.3578C11.0296 13.4042 10.9986 13.4428 10.9522 13.4467L10.7047 13.466Z" fill="#009B3A"/>
<path fill-rule="evenodd" clip-rule="evenodd" d="M11.4279 13.7832H11.7334C11.8881 13.7754 12.008 13.6478 12.0042 13.497V13.4042C12.0003 13.2495 11.8727 13.1296 11.7218 13.1335H11.4163L11.4279 13.787V13.7832ZM11.5478 13.6594H11.7218C11.8185 13.6555 11.8959 13.5743 11.8959 13.4776V13.4235C11.8959 13.3268 11.8147 13.2495 11.718 13.2495H11.5439L11.5517 13.6594H11.5478Z" fill="#009B3A"/>
<path d="M12.2516 13.7754L12.8356 13.7948V13.6749L12.3677 13.6594L12.3754 13.4931L12.7467 13.5047V13.3926L12.3793 13.381V13.2533L12.8279 13.2688V13.1489L12.2787 13.1296L12.2555 13.7754H12.2516Z" fill="#009B3A"/>
<path d="M13.0716 13.8102L13.1837 13.8218L13.2224 13.381L13.3114 13.8334L13.4119 13.8412L13.5782 13.4119L13.5395 13.8528L13.6517 13.8644L13.7097 13.2185L13.5473 13.2031L13.381 13.6323L13.292 13.1799L13.1296 13.1644L13.0716 13.8102Z" fill="#009B3A"/>
<path d="M14.4135 13.9611L14.8931 14.0423L14.9124 13.934L14.545 13.8721L14.5682 13.7251L14.8699 13.7754L14.8892 13.6671L14.5875 13.6169L14.603 13.5163L14.9627 13.5782L14.982 13.4699L14.5141 13.3887L14.4135 13.9611Z" fill="#009B3A"/>
<path fill-rule="evenodd" clip-rule="evenodd" d="M15.6433 14.2047L15.7593 14.2356L15.8212 14.0036L16.0726 14.0693C16.1809 14.0964 16.293 14.0307 16.3201 13.9224C16.3472 13.8141 16.2814 13.7019 16.1731 13.6749L15.8135 13.5821L15.6433 14.2047ZM15.8483 13.8837L16.0919 13.9456C16.1383 13.9572 16.1809 13.9301 16.1925 13.8876C16.2041 13.8412 16.177 13.7986 16.1345 13.787L15.8908 13.7252L15.8483 13.8876V13.8837Z" fill="#009B3A"/>
<path d="M16.993 13.9108L16.6411 13.7986L16.4361 14.4135L16.5521 14.4483L16.6256 14.2202L16.8731 14.2975C16.9118 14.3787 16.877 14.487 16.8576 14.545L16.9621 14.5798C16.9853 14.5102 17.0239 14.3787 16.9814 14.3014C17.0471 14.2859 17.1051 14.2356 17.1283 14.166C17.1632 14.0577 17.1013 13.9456 16.9969 13.9108H16.993ZM17.0007 14.1274C16.9853 14.1699 16.9389 14.197 16.8963 14.1815L16.6565 14.108L16.7068 13.9495L16.9466 14.0229C16.9891 14.0384 17.0162 14.0848 17.0007 14.1274Z" fill="#009B3A"/>
<path fill-rule="evenodd" clip-rule="evenodd" d="M17.4919 14.7693C17.6427 14.8273 17.8167 14.7345 17.8786 14.5682C17.9405 14.4019 17.8709 14.2202 17.7201 14.1622C17.5692 14.1042 17.3952 14.197 17.3333 14.3633C17.2715 14.5296 17.3411 14.7113 17.4919 14.7693ZM17.5344 14.6572C17.6234 14.692 17.7278 14.6301 17.7665 14.5257C17.8051 14.4213 17.7665 14.3091 17.6775 14.2743C17.5886 14.2395 17.4842 14.3014 17.4455 14.4058C17.4068 14.5102 17.4455 14.6224 17.5344 14.6572Z" fill="#009B3A"/>
<path d="M18.4665 14.5953C18.5206 14.6185 18.5554 14.6726 18.5593 14.7384L18.6792 14.7887C18.6908 14.6572 18.6289 14.5334 18.5129 14.4831C18.3659 14.4174 18.188 14.4986 18.1184 14.6649C18.0488 14.8273 18.1107 15.013 18.2576 15.0787C18.3272 15.1097 18.4046 15.1058 18.4742 15.0787L18.4394 15.1599L18.5245 15.1986L18.625 14.9704L18.656 14.9008L18.5709 14.8621L18.5438 14.8505L18.4278 14.8003L18.3891 14.8854L18.4858 14.9279C18.4317 14.9782 18.3621 14.9975 18.304 14.9704C18.219 14.9318 18.1842 14.8196 18.2267 14.7152C18.2731 14.6108 18.3775 14.5605 18.4665 14.5953Z" fill="#009B3A"/>
<path d="M19.3676 14.8854L19.035 14.7191L18.7372 15.2953L18.8455 15.3494L18.9538 15.1329L19.1858 15.2489C19.209 15.3378 19.1626 15.4345 19.1317 15.4925L19.2322 15.5428C19.2631 15.4771 19.325 15.3533 19.2941 15.2721C19.3637 15.2682 19.4256 15.2257 19.4604 15.1599C19.5106 15.0594 19.4681 14.9356 19.3676 14.8854ZM19.3444 15.1019C19.325 15.1445 19.2747 15.1599 19.2322 15.1406L19.0079 15.0284L19.0814 14.8776L19.3057 14.9898C19.3482 15.0091 19.3637 15.0594 19.3444 15.1019Z" fill="#009B3A"/>
<path d="M19.472 15.6704L19.9786 15.9566L20.0366 15.8522L19.6267 15.6202L19.7079 15.4771L20.0289 15.6588L20.083 15.5621L19.7621 15.3804L19.8239 15.2682L20.2107 15.4887L20.2687 15.3842L19.7853 15.1097L19.4681 15.6743L19.472 15.6704Z" fill="#009B3A"/>
<path d="M20.4156 15.9875C20.3808 16.0417 20.4156 16.1036 20.4929 16.1538C20.5703 16.2041 20.6244 16.2002 20.6476 16.1654C20.7172 16.0533 20.3073 15.8909 20.4349 15.6975C20.5432 15.5312 20.7288 15.6588 20.7984 15.7052C20.8681 15.7516 20.9802 15.8638 20.8951 15.9991L20.7752 15.9218C20.8139 15.8638 20.7752 15.8058 20.7095 15.7671C20.6476 15.7284 20.6012 15.7091 20.5625 15.7671C20.5007 15.856 20.9029 16.0262 20.7791 16.2196C20.6902 16.3627 20.5316 16.3008 20.4272 16.2312C20.3382 16.1732 20.2029 16.0378 20.2918 15.9025L20.4156 15.9798V15.9875Z" fill="#009B3A"/>
<path d="M21.1117 16.4439C21.0731 16.498 21.1079 16.5599 21.1813 16.6141C21.2548 16.6682 21.309 16.6682 21.3322 16.6334C21.4095 16.5251 21.0073 16.3433 21.1427 16.1577C21.2587 15.9953 21.4405 16.1345 21.5062 16.1848C21.5719 16.2351 21.6802 16.3549 21.5874 16.4826L21.4714 16.4014C21.5101 16.3433 21.4714 16.2853 21.4134 16.2428C21.3554 16.2003 21.3051 16.1809 21.2664 16.2351C21.2007 16.324 21.5913 16.5135 21.4598 16.6991C21.3631 16.8384 21.2084 16.7649 21.104 16.6953C21.0189 16.6334 20.8913 16.4903 20.9841 16.3588L21.104 16.4439H21.1117Z" fill="#009B3A"/>
<path fill-rule="evenodd" clip-rule="evenodd" d="M21.7692 17.1903C21.8968 17.2908 22.0863 17.2599 22.1985 17.1168C22.3106 16.9776 22.299 16.7842 22.1714 16.6837C22.0438 16.5831 21.8543 16.614 21.7421 16.7571C21.63 16.8964 21.6416 17.0897 21.7692 17.1903ZM21.8427 17.0975C21.9162 17.1555 22.0322 17.1323 22.1018 17.0433C22.1714 16.9544 22.1675 16.8345 22.0941 16.7765C22.0206 16.7185 21.9046 16.7417 21.8349 16.8306C21.7653 16.9196 21.7692 17.0395 21.8427 17.0975Z" fill="#009B3A"/>
<path d="M10.3296 14.3671L10.2407 14.6456L10.3799 14.692" fill="white"/>
<path d="M10.3296 14.3671L10.4186 14.6456L10.2794 14.692" fill="white"/>
<path d="M10.6081 14.5682H10.3181V14.7152" fill="white"/>
<path d="M10.6081 14.5682L10.3722 14.7384L10.2871 14.6224" fill="white"/>
<path d="M10.0551 14.5682L10.291 14.7384L10.376 14.6224" fill="white"/>
<path d="M10.0551 14.5682H10.3451V14.7152" fill="white"/>
<path d="M10.4998 14.897L10.4108 14.6185L10.2716 14.6649" fill="white"/>
<path d="M10.4998 14.897L10.2639 14.7268L10.3489 14.6108" fill="white"/>
<path d="M10.1595 14.897L10.3954 14.7268L10.3103 14.6108" fill="white"/>
<path d="M10.1595 14.897L10.2484 14.6185L10.3877 14.6649" fill="white"/>
<path d="M10.9329 17.2251L10.844 17.5035L10.9832 17.55" fill="white"/>
<path d="M10.933 17.2251L11.0219 17.5035L10.8827 17.55" fill="white"/>
<path d="M11.2075 17.4262H10.9175V17.5732" fill="white"/>
<path d="M11.2075 17.4262L10.9716 17.5964L10.8865 17.4803" fill="white"/>
<path d="M10.6545 17.4262L10.8904 17.5964L10.9755 17.4803" fill="white"/>
<path d="M10.6545 17.4262H10.9445V17.5732" fill="white"/>
<path d="M11.1031 17.7549L11.0142 17.4765L10.8749 17.5229" fill="white"/>
<path d="M11.1031 17.7549L10.8672 17.5848L10.9523 17.4687" fill="white"/>
<path d="M10.7589 17.7549L10.9948 17.5848L10.9097 17.4687" fill="white"/>
<path d="M10.7589 17.7549L10.8479 17.4765L10.9871 17.5229" fill="white"/>
<path d="M10.0976 17.8864L10.0241 18.1185L10.1401 18.1571" fill="white"/>
<path d="M10.0976 17.8864L10.1711 18.1185L10.0551 18.1571" fill="white"/>
<path d="M10.3296 18.0527H10.086V18.1726" fill="white"/>
<path d="M10.3297 18.0527L10.1324 18.1958L10.0628 18.0991" fill="white"/>
<path d="M9.86945 18.0527L10.0667 18.1958L10.1363 18.0991" fill="white"/>
<path d="M9.86945 18.0527H10.1131V18.1726" fill="white"/>
<path d="M10.2407 18.3234L10.1672 18.0914L10.0512 18.13" fill="white"/>
<path d="M10.2407 18.3234L10.0435 18.1803L10.1131 18.0836" fill="white"/>
<path d="M9.95453 18.3234L10.1518 18.1803L10.0822 18.0836" fill="white"/>
<path d="M9.95453 18.3234L10.028 18.0914L10.144 18.13" fill="white"/>
<path d="M11.5981 16.9621L11.5556 17.0936L11.6213 17.1168" fill="white"/>
<path d="M11.5981 16.9621L11.6406 17.0936L11.5749 17.1168" fill="white"/>
<path d="M11.7296 17.0588H11.5904V17.1284" fill="white"/>
<path d="M11.7296 17.0588L11.6175 17.14L11.575 17.082" fill="white"/>
<path d="M11.4666 17.0588L11.5788 17.14L11.6213 17.082" fill="white"/>
<path d="M11.4666 17.0588H11.6058V17.1284" fill="white"/>
<path d="M11.6793 17.2135L11.6368 17.082L11.571 17.1052" fill="white"/>
<path d="M11.6794 17.2135L11.5672 17.1323L11.6097 17.0743" fill="white"/>
<path d="M11.5169 17.2135L11.6291 17.1323L11.5865 17.0743" fill="white"/>
<path d="M11.5169 17.2135L11.5594 17.082L11.6252 17.1052" fill="white"/>
<path d="M12.3445 17.9483L12.2711 18.1803L12.3871 18.219" fill="white"/>
<path d="M12.3445 17.9483L12.418 18.1803L12.302 18.219" fill="white"/>
<path d="M12.5766 18.1185H12.3329V18.2383" fill="white"/>
<path d="M12.5765 18.1185L12.3793 18.2615L12.3097 18.1649" fill="white"/>
<path d="M12.1163 18.1185L12.3136 18.2615L12.3832 18.1649" fill="white"/>
<path d="M12.1163 18.1185H12.36V18.2383" fill="white"/>
<path d="M12.4876 18.3892L12.4141 18.1571L12.2981 18.1958" fill="white"/>
<path d="M12.4876 18.3892L12.2904 18.2461L12.36 18.1494" fill="white"/>
<path d="M12.2053 18.3892L12.4025 18.2461L12.3329 18.1494" fill="white"/>
<path d="M12.2053 18.3892L12.2787 18.1571L12.3948 18.1958" fill="white"/>
<path d="M12.1434 18.6753L12.0815 18.861L12.1744 18.8919" fill="white"/>
<path d="M12.1434 18.6753L12.2053 18.861L12.1125 18.8919" fill="white"/>
<path d="M12.329 18.8068H12.1357V18.9035" fill="white"/>
<path d="M12.3291 18.8068L12.1705 18.9228L12.1125 18.8455" fill="white"/>
<path d="M11.9578 18.8068L12.1164 18.9228L12.1744 18.8455" fill="white"/>
<path d="M11.9578 18.8068H12.1512V18.9035" fill="white"/>
<path d="M12.2556 19.0234L12.1937 18.8378L12.1009 18.8687" fill="white"/>
<path d="M12.2556 19.0234L12.097 18.9074L12.1551 18.83" fill="white"/>
<path d="M12.0274 19.0234L12.186 18.9074L12.128 18.83" fill="white"/>
<path d="M12.0274 19.0234L12.0893 18.8378L12.1821 18.8687" fill="white"/>
<path d="M17.987 13.4815L17.898 13.76L18.0372 13.8064" fill="white"/>
<path d="M17.9869 13.4815L18.0759 13.76L17.9366 13.8064" fill="white"/>
<path d="M18.2654 13.6826H17.9753V13.8296" fill="white"/>
<path d="M18.2654 13.6826L18.0295 13.8528L17.9444 13.7368" fill="white"/>
<path d="M17.7124 13.6826L17.9483 13.8528L18.0334 13.7368" fill="white"/>
<path d="M17.7124 13.6826H18.0025V13.8296" fill="white"/>
<path d="M18.161 14.0075L18.072 13.729L17.9328 13.7754" fill="white"/>
<path d="M18.161 14.0075L17.9251 13.8373L18.0102 13.7213" fill="white"/>
<path d="M17.8168 14.0075L18.0527 13.8373L17.9677 13.7213" fill="white"/>
<path d="M17.8168 14.0075L17.9058 13.729L18.045 13.7754" fill="white"/>
<path d="M20.6438 17.9754L20.5549 18.2538L20.6941 18.3002" fill="white"/>
<path d="M20.6438 17.9754L20.7327 18.2538L20.5935 18.3002" fill="white"/>
<path d="M20.9184 18.1765H20.6284V18.3234" fill="white"/>
<path d="M20.9184 18.1765L20.6825 18.3466L20.5974 18.2306" fill="white"/>
<path d="M20.3654 18.1765L20.6013 18.3466L20.6863 18.2306" fill="white"/>
<path d="M20.3654 18.1765H20.6554V18.3234" fill="white"/>
<path d="M20.814 18.5013L20.725 18.2229L20.5858 18.2693" fill="white"/>
<path d="M20.814 18.5013L20.5781 18.3312L20.6631 18.2151" fill="white"/>
<path d="M20.4698 18.5013L20.7057 18.3312L20.6206 18.2151" fill="white"/>
<path d="M20.4698 18.5013L20.5587 18.2229L20.698 18.2693" fill="white"/>
<path d="M21.5836 18.1378L21.5217 18.3234L21.6145 18.3544" fill="white"/>
<path d="M21.5836 18.1378L21.6455 18.3234L21.5527 18.3544" fill="white"/>
<path d="M21.7692 18.2731H21.5759V18.3698" fill="white"/>
<path d="M21.7692 18.2731L21.6107 18.3892L21.5527 18.3118" fill="white"/>
<path d="M21.4018 18.2731L21.5604 18.3892L21.6184 18.3118" fill="white"/>
<path d="M21.4018 18.2731H21.5952V18.3698" fill="white"/>
<path d="M21.6996 18.4897L21.6377 18.3041L21.5449 18.335" fill="white"/>
<path d="M21.6996 18.4897L21.541 18.3737L21.599 18.2964" fill="white"/>
<path d="M21.4714 18.4897L21.63 18.3737L21.572 18.2964" fill="white"/>
<path d="M21.4714 18.4897L21.5333 18.3041L21.6261 18.335" fill="white"/>
<path d="M20.9184 18.6251L20.8449 18.8571L20.9609 18.8958" fill="white"/>
<path d="M20.9184 18.6251L20.9919 18.8571L20.8759 18.8958" fill="white"/>
<path d="M21.1504 18.7914H20.9068V18.9113" fill="white"/>
<path d="M21.1505 18.7914L20.9532 18.9345L20.8836 18.8378" fill="white"/>
<path d="M20.6902 18.7914L20.8874 18.9345L20.957 18.8378" fill="white"/>
<path d="M20.6902 18.7914H20.9338V18.9113" fill="white"/>
<path d="M21.0615 19.0659L20.988 18.8339L20.872 18.8726" fill="white"/>
<path d="M21.0615 19.0659L20.8643 18.9229L20.9339 18.8262" fill="white"/>
<path d="M20.7753 19.0659L20.9725 18.9229L20.9029 18.8262" fill="white"/>
<path d="M20.7753 19.0659L20.8487 18.8339L20.9648 18.8726" fill="white"/>
<path d="M19.2825 20.0482L19.209 20.2803L19.3251 20.319" fill="white"/>
<path d="M19.2825 20.0482L19.356 20.2803L19.24 20.319" fill="white"/>
<path d="M19.5146 20.2184H19.2709V20.3383" fill="white"/>
<path d="M19.5145 20.2184L19.3173 20.3615L19.2477 20.2648" fill="white"/>
<path d="M19.0505 20.2184L19.2477 20.3615L19.3173 20.2648" fill="white"/>
<path d="M19.0505 20.2184H19.2941V20.3383" fill="white"/>
<path d="M19.4256 20.4891L19.3522 20.2571L19.2361 20.2958" fill="white"/>
<path d="M19.4256 20.4891L19.2284 20.346L19.298 20.2493" fill="white"/>
<path d="M19.1394 20.4891L19.3366 20.346L19.267 20.2493" fill="white"/>
<path d="M19.1394 20.4891L19.2129 20.2571L19.3289 20.2958" fill="white"/>
<path d="M19.2748 20.783L19.2129 20.9687L19.3057 20.9996" fill="white"/>
<path d="M19.2748 20.783L19.3367 20.9687L19.2438 20.9996" fill="white"/>
<path d="M19.4566 20.9184H19.2632V21.0151" fill="white"/>
<path d="M19.4566 20.9184L19.298 21.0344L19.24 20.9571" fill="white"/>
<path d="M19.0892 20.9184L19.2477 21.0344L19.3057 20.9571" fill="white"/>
<path d="M19.0892 20.9184H19.2825V21.0151" fill="white"/>
<path d="M19.3869 21.135L19.3251 20.9493L19.2322 20.9803" fill="white"/>
<path d="M19.387 21.135L19.2284 21.019L19.2864 20.9416" fill="white"/>
<path d="M19.1588 21.135L19.3173 21.019L19.2593 20.9416" fill="white"/>
<path d="M19.1588 21.135L19.2206 20.9493L19.3134 20.9803" fill="white"/>
<path d="M19.9593 19.561L19.8974 19.7466L19.9902 19.7775" fill="white"/>
<path d="M19.9593 19.561L20.0212 19.7466L19.9283 19.7775" fill="white"/>
<path d="M20.1411 19.6963H19.9477V19.793" fill="white"/>
<path d="M20.1411 19.6963L19.9825 19.8123L19.9245 19.735" fill="white"/>
<path d="M19.7737 19.6963L19.9322 19.8123L19.9903 19.735" fill="white"/>
<path d="M19.7737 19.6963H19.967V19.793" fill="white"/>
<path d="M20.0714 19.9129L20.0096 19.7272L19.9167 19.7582" fill="white"/>
<path d="M20.0715 19.9129L19.9129 19.7969L19.9709 19.7195" fill="white"/>
<path d="M19.8433 19.9129L20.0018 19.7969L19.9438 19.7195" fill="white"/>
<path d="M19.8433 19.9129L19.9051 19.7272L19.998 19.7582" fill="white"/>
<path d="M20.5046 19.1704L20.4311 19.4024L20.5471 19.4411" fill="white"/>
<path d="M20.5046 19.1704L20.5781 19.4024L20.462 19.4411" fill="white"/>
<path d="M20.7328 19.3405H20.4891V19.4604" fill="white"/>
<path d="M20.7328 19.3405L20.5356 19.4836L20.4659 19.3869" fill="white"/>
<path d="M20.2726 19.3405L20.4698 19.4836L20.5394 19.3869" fill="white"/>
<path d="M20.2726 19.3405H20.5162V19.4604" fill="white"/>
<path d="M20.6477 19.6112L20.5742 19.3792L20.4582 19.4179" fill="white"/>
<path d="M20.6477 19.6112L20.4504 19.4681L20.5201 19.3715" fill="white"/>
<path d="M20.3615 19.6112L20.5587 19.4681L20.4891 19.3715" fill="white"/>
<path d="M20.3615 19.6112L20.435 19.3792L20.551 19.4179" fill="white"/>
<path d="M19.2554 19.4333L19.1935 19.619L19.2864 19.6499" fill="white"/>
<path d="M19.2554 19.4333L19.3173 19.619L19.2245 19.6499" fill="white"/>
<path d="M19.441 19.5648H19.2477V19.6615" fill="white"/>
<path d="M19.4411 19.5648L19.2825 19.6809L19.2245 19.6035" fill="white"/>
<path d="M19.0698 19.5648L19.2284 19.6809L19.2864 19.6035" fill="white"/>
<path d="M19.0698 19.5648H19.2632V19.6615" fill="white"/>
<path d="M19.3676 19.7853L19.3057 19.5996L19.2129 19.6306" fill="white"/>
<path d="M19.3676 19.7853L19.209 19.6693L19.2671 19.5919" fill="white"/>
<path d="M19.1394 19.7853L19.298 19.6693L19.24 19.5919" fill="white"/>
<path d="M19.1394 19.7853L19.2013 19.5996L19.2941 19.6306" fill="white"/>
<path d="M13.2881 15.9141L13.2147 16.1461L13.3307 16.1848" fill="white"/>
<path d="M13.2881 15.9141L13.3616 16.1461L13.2456 16.1848" fill="white"/>
<path d="M13.5202 16.0842H13.2766V16.2041" fill="white"/>
<path d="M13.5202 16.0842L13.323 16.2273L13.2534 16.1306" fill="white"/>
<path d="M13.06 16.0842L13.2572 16.2273L13.3268 16.1306" fill="white"/>
<path d="M13.06 16.0842H13.3036V16.2041" fill="white"/>
<path d="M13.4313 16.355L13.3578 16.1229L13.2418 16.1616" fill="white"/>
<path d="M13.4312 16.3549L13.234 16.2119L13.3036 16.1152" fill="white"/>
<path d="M13.1489 16.3549L13.3462 16.2119L13.2765 16.1152" fill="white"/>
<path d="M13.1489 16.355L13.2224 16.1229L13.3384 16.1616" fill="white"/>
<path d="M17.7278 15.3456L17.666 15.5312L17.7588 15.5622" fill="white"/>
<path d="M17.7278 15.3456L17.7897 15.5312L17.6969 15.5622" fill="white"/>
<path d="M17.9135 15.4771H17.7201V15.5737" fill="white"/>
<path d="M17.9135 15.4771L17.7549 15.5931L17.6969 15.5157" fill="white"/>
<path d="M17.5461 15.4771L17.7046 15.5931L17.7627 15.5157" fill="white"/>
<path d="M17.5461 15.4771H17.7394V15.5737" fill="white"/>
<path d="M17.8438 15.6975L17.782 15.5119L17.6891 15.5428" fill="white"/>
<path d="M17.8439 15.6975L17.6853 15.5815L17.7433 15.5041" fill="white"/>
<path d="M17.6157 15.6975L17.7742 15.5815L17.7162 15.5041" fill="white"/>
<path d="M17.6157 15.6975L17.6775 15.5119L17.7704 15.5428" fill="white"/>
<path d="M15.8792 18.6405L15.7903 18.919L15.9295 18.9654" fill="white"/>
<path d="M15.8793 18.6405L15.9682 18.919L15.829 18.9654" fill="white"/>
<path d="M16.1577 18.8416H15.8677V18.9886" fill="white"/>
<path d="M16.1577 18.8416L15.9218 19.0118L15.8367 18.8958" fill="white"/>
<path d="M15.6008 18.8416L15.8367 19.0118L15.9218 18.8958" fill="white"/>
<path d="M15.6008 18.8416H15.8909V18.9886" fill="white"/>
<path d="M16.0494 19.1704L15.9605 18.8919L15.8212 18.9383" fill="white"/>
<path d="M16.0494 19.1704L15.8135 19.0002L15.8986 18.8842" fill="white"/>
<path d="M15.7091 19.1704L15.945 19.0002L15.8599 18.8842" fill="white"/>
<path d="M15.7091 19.1704L15.7981 18.8919L15.9373 18.9383" fill="white"/>
<path d="M16.6644 17.3411L16.5909 17.5731L16.7069 17.6118" fill="white"/>
<path d="M16.6644 17.3411L16.7378 17.5731L16.6218 17.6118" fill="white"/>
<path d="M16.8964 17.5074H16.6527V17.6273" fill="white"/>
<path d="M16.8964 17.5074L16.6991 17.6505L16.6295 17.5538" fill="white"/>
<path d="M16.4362 17.5074L16.6334 17.6505L16.703 17.5538" fill="white"/>
<path d="M16.4362 17.5074H16.6798V17.6273" fill="white"/>
<path d="M16.8074 17.7781L16.7339 17.5461L16.6179 17.5848" fill="white"/>
<path d="M16.8074 17.7781L16.6102 17.635L16.6798 17.5383" fill="white"/>
<path d="M16.5212 17.7781L16.7185 17.635L16.6489 17.5383" fill="white"/>
<path d="M16.5212 17.7781L16.5947 17.5461L16.7107 17.5848" fill="white"/>
<path d="M15.8793 16.7301L15.8058 16.9621L15.9218 17.0008" fill="white"/>
<path d="M15.8793 16.7301L15.9528 16.9621L15.8367 17.0008" fill="white"/>
<path d="M16.1113 16.8964H15.8677V17.0163" fill="white"/>
<path d="M16.1113 16.8964L15.9141 17.0395L15.8445 16.9428" fill="white"/>
<path d="M15.6472 16.8964L15.8445 17.0395L15.9141 16.9428" fill="white"/>
<path d="M15.6472 16.8964H15.8909V17.0163" fill="white"/>
<path d="M16.0224 17.1671L15.9489 16.935L15.8329 16.9737" fill="white"/>
<path d="M16.0224 17.1671L15.8251 17.024L15.8947 16.9273" fill="white"/>
<path d="M15.7361 17.1671L15.9334 17.024L15.8638 16.9273" fill="white"/>
<path d="M15.7361 17.1671L15.8096 16.935L15.9256 16.9737" fill="white"/>
<path d="M15.1948 17.3875L15.1329 17.5732L15.2257 17.6041" fill="white"/>
<path d="M15.1948 17.3875L15.2566 17.5732L15.1638 17.6041" fill="white"/>
<path d="M15.3804 17.5229H15.187V17.6196" fill="white"/>
<path d="M15.3804 17.5229L15.2218 17.6389L15.1638 17.5616" fill="white"/>
<path d="M15.0091 17.5229L15.1677 17.6389L15.2257 17.5616" fill="white"/>
<path d="M15.0091 17.5229H15.2025V17.6196" fill="white"/>
<path d="M15.3108 17.7394L15.2489 17.5538L15.1561 17.5848" fill="white"/>
<path d="M15.3108 17.7394L15.1522 17.6234L15.2102 17.5461" fill="white"/>
<path d="M15.0826 17.7394L15.2411 17.6234L15.1831 17.5461" fill="white"/>
<path d="M15.0826 17.7394L15.1445 17.5538L15.2373 17.5848" fill="white"/>
<path d="M15.5389 17.9173L15.4964 18.0488L15.5621 18.072" fill="white"/>
<path d="M15.539 17.9173L15.5815 18.0488L15.5157 18.072" fill="white"/>
<path d="M15.6704 18.0102H15.5312V18.0798" fill="white"/>
<path d="M15.6704 18.0102L15.5583 18.0914L15.5157 18.0334" fill="white"/>
<path d="M15.4036 18.0102L15.5157 18.0914L15.5583 18.0334" fill="white"/>
<path d="M15.4036 18.0102H15.5428V18.0798" fill="white"/>
<path d="M15.6202 18.1649L15.5776 18.0334L15.5119 18.0566" fill="white"/>
<path d="M15.6201 18.1649L15.508 18.0836L15.5505 18.0256" fill="white"/>
<path d="M15.4539 18.1649L15.566 18.0836L15.5235 18.0256" fill="white"/>
<path d="M15.4539 18.1649L15.4964 18.0334L15.5621 18.0566" fill="white"/>
<path d="M17.9134 20.2145L17.84 20.4466L17.956 20.4853" fill="white"/>
<path d="M17.9135 20.2145L17.9869 20.4466L17.8709 20.4853" fill="white"/>
<path d="M18.1455 20.3847H17.9019V20.5046" fill="white"/>
<path d="M18.1455 20.3847L17.9483 20.5278L17.8787 20.4311" fill="white"/>
<path d="M17.6815 20.3847L17.8787 20.5278L17.9483 20.4311" fill="white"/>
<path d="M17.6815 20.3847H17.9251V20.5046" fill="white"/>
<path d="M18.0566 20.6554L17.9831 20.4234L17.8671 20.4621" fill="white"/>
<path d="M18.0566 20.6554L17.8594 20.5123L17.929 20.4156" fill="white"/>
<path d="M17.7704 20.6554L17.9676 20.5123L17.898 20.4156" fill="white"/>
<path d="M17.7704 20.6554L17.8439 20.4234L17.9599 20.4621" fill="white"/>
<path d="M18.4974 19.6615L18.4355 19.8471L18.5284 19.8781" fill="white"/>
<path d="M18.4974 19.6615L18.5593 19.8471L18.4665 19.8781" fill="white"/>
<path d="M18.6831 19.7969H18.4897V19.8935" fill="white"/>
<path d="M18.6831 19.7969L18.5245 19.9129L18.4665 19.8355" fill="white"/>
<path d="M18.3118 19.7969L18.4704 19.9129L18.5284 19.8355" fill="white"/>
<path d="M18.3118 19.7969H18.5052V19.8935" fill="white"/>
<path d="M18.6096 20.0134L18.5477 19.8278L18.4549 19.8587" fill="white"/>
<path d="M18.6096 20.0134L18.451 19.8974L18.5091 19.8201" fill="white"/>
<path d="M18.3814 20.0134L18.54 19.8974L18.482 19.8201" fill="white"/>
<path d="M18.3814 20.0134L18.4433 19.8278L18.5361 19.8587" fill="white"/>
<path d="M17.3759 19.4952L17.314 19.6809L17.4068 19.7118" fill="white"/>
<path d="M17.3759 19.4952L17.4378 19.6809L17.345 19.7118" fill="white"/>
<path d="M17.5615 19.6306H17.3682V19.7273" fill="white"/>
<path d="M17.5615 19.6306L17.403 19.7466L17.345 19.6692" fill="white"/>
<path d="M17.1942 19.6306L17.3527 19.7466L17.4107 19.6692" fill="white"/>
<path d="M17.1942 19.6306H17.3875V19.7273" fill="white"/>
<path d="M17.4919 19.8471L17.43 19.6615L17.3372 19.6925" fill="white"/>
<path d="M17.4919 19.8471L17.3334 19.7311L17.3914 19.6538" fill="white"/>
<path d="M17.2638 19.8471L17.4224 19.7311L17.3643 19.6538" fill="white"/>
<path d="M17.2638 19.8471L17.3257 19.6615L17.4185 19.6925" fill="white"/>
<path d="M13.1528 19.1974L13.0638 19.4759L13.2031 19.5223" fill="white"/>
<path d="M13.1528 19.1974L13.2418 19.4759L13.1025 19.5223" fill="white"/>
<path d="M13.4274 19.3985H13.1373V19.5455" fill="white"/>
<path d="M13.4274 19.3985L13.1915 19.5687L13.1064 19.4527" fill="white"/>
<path d="M12.8743 19.3985L13.1102 19.5687L13.1953 19.4527" fill="white"/>
<path d="M12.8743 19.3985H13.1644V19.5455" fill="white"/>
<path d="M13.323 19.7234L13.234 19.4449L13.0948 19.4914" fill="white"/>
<path d="M13.3229 19.7234L13.087 19.5532L13.1721 19.4372" fill="white"/>
<path d="M12.9788 19.7234L13.2147 19.5532L13.1296 19.4372" fill="white"/>
<path d="M12.9788 19.7234L13.0677 19.4449L13.2069 19.4914" fill="white"/>
<path d="M15.8793 21.1002L15.8483 21.193L15.8947 21.2084" fill="white"/>
<path d="M15.8792 21.1002L15.9102 21.193L15.8638 21.2084" fill="white"/>
<path d="M15.9721 21.1698H15.8754V21.22" fill="white"/>
<path d="M15.9721 21.1698L15.8947 21.2278L15.8677 21.1891" fill="white"/>
<path d="M15.7864 21.1698L15.8638 21.2278L15.8909 21.1891" fill="white"/>
<path d="M15.7864 21.1698H15.8831V21.22" fill="white"/>
<path d="M15.9373 21.2783L15.9063 21.1855L15.8599 21.2009" fill="white"/>
<path d="M15.9373 21.2781L15.8599 21.2201L15.887 21.1814" fill="white"/>
<path d="M15.8212 21.2781L15.8986 21.2201L15.8715 21.1814" fill="white"/>
<path d="M15.8212 21.2783L15.8522 21.1855L15.8986 21.2009" fill="white"/>
</g>
</svg>
