<svg width="60" height="60" viewBox="0 0 60 60" fill="none" xmlns="http://www.w3.org/2000/svg">
<g clip-path="url(#clip0_178_1613)">
<mask id="mask0_178_1613" style="mask-type:luminance" maskUnits="userSpaceOnUse" x="6" y="0" width="48" height="48">
<path d="M52.9447 19.5484H30.3973V28.7758H43.3536C43.145 30.0815 42.677 31.3661 41.9935 32.5369C41.2082 33.8794 40.239 34.9011 39.2452 35.6793C36.2672 38.0102 32.795 38.4869 30.3833 38.4869C24.2907 38.4869 19.0868 34.4665 17.0711 29.0019C16.9905 28.8039 16.9362 28.5988 16.8695 28.3955C16.4243 27.0057 16.1807 25.5318 16.1807 24.0018C16.1807 22.4717 16.4436 20.8839 16.9239 19.4433C18.8186 13.7631 24.1417 9.52008 30.3868 9.52008C31.6435 9.52008 32.8529 9.67256 33.9992 9.97751C36.6213 10.6733 38.4757 12.0438 39.6115 13.1287L46.4682 6.27078C42.2949 2.366 36.8579 0 30.3727 0C25.1881 0 20.4013 1.64919 16.4787 4.43756C13.2974 6.69841 10.6893 9.72514 8.92784 13.2408C7.29252 16.5007 6.39511 20.1145 6.39511 23.9982C6.39511 27.882 7.29252 31.5326 8.93134 34.7627V34.7837C10.6613 38.2118 13.1905 41.1649 16.2648 43.4152C18.9501 45.3816 23.7666 48 30.3727 48C34.1727 48 37.5397 47.3007 40.5089 45.9898C42.6508 45.0434 44.549 43.8095 46.2684 42.2252C48.54 40.1309 50.3173 37.5388 51.5319 34.5576C52.7466 31.5765 53.3951 28.2045 53.3951 24.5503C53.3951 22.8485 53.2268 21.1187 52.9447 19.5484Z" fill="white"/>
</mask>
<g mask="url(#mask0_178_1613)">
<path d="M6.0498 24.1613C6.07434 27.9837 7.14177 31.9287 8.75605 35.1132V35.136C9.92338 37.4477 11.5166 39.2756 13.3325 41.0843L24.3012 36.9972C22.2259 35.9212 21.9087 35.2604 20.4224 34.0581C18.9027 32.4931 17.7687 30.6949 17.0641 28.5883H17.036L17.0641 28.5655C16.5996 27.174 16.554 25.6965 16.5365 24.1613H6.0498Z" fill="url(#paint0_radial_178_1613)"/>
<path d="M30.3955 -0.175293C29.3106 3.71371 29.726 7.4958 30.3955 9.69531C31.647 9.69531 32.8529 9.84954 33.9974 10.1527C36.6195 10.8485 38.4722 12.219 39.6097 13.3039L46.6418 6.27074C42.4755 2.37122 37.4626 -0.168283 30.3955 -0.175293Z" fill="url(#paint1_radial_178_1613)"/>
<path d="M30.3727 -0.205078C25.0549 -0.205078 20.1454 1.48617 16.1229 4.3464C14.6295 5.40847 13.2589 6.63529 12.0372 7.99881C11.7182 11.0623 14.4315 14.8287 19.8037 14.7971C22.41 11.7003 26.266 9.69532 30.5585 9.69532C30.562 9.69532 30.5655 9.69532 30.5708 9.69532L30.3955 -0.205078C30.3955 -0.205078 30.3797 -0.205078 30.3727 -0.205078Z" fill="url(#paint2_radial_178_1613)"/>
<path d="M47.923 25.2706L43.1766 28.6005C42.968 29.9062 42.5 31.1909 41.8147 32.3616C41.0295 33.7041 40.0602 34.7258 39.0664 35.504C36.0937 37.8297 32.6303 38.3081 30.2202 38.3116C27.7278 42.6458 27.2914 44.8173 30.3955 48.3154C34.2358 48.3119 37.6414 47.6039 40.6456 46.2789C42.8173 45.3203 44.74 44.0707 46.4823 42.4635C48.7836 40.3411 50.5855 37.714 51.8159 34.6925C53.0463 31.6711 53.7036 28.2553 53.7036 24.5503L47.923 25.2706Z" fill="url(#paint3_radial_178_1613)"/>
<path d="M30.045 19.1979V29.1263H52.8798C53.0814 27.7663 53.7457 26.0067 53.7457 24.5503C53.7457 22.8485 53.5792 20.7682 53.2952 19.1979H30.0467H30.045Z" fill="#3086FF"/>
<path d="M12.1459 7.64832C10.7367 9.22214 9.53253 10.9853 8.57903 12.8921C6.94196 16.1501 6.04456 20.1145 6.04456 23.9982C6.04456 24.0526 6.04981 24.1069 6.04981 24.1612C6.77545 25.5808 16.0685 25.3092 16.5365 24.1612C16.5365 24.1069 16.5295 24.0561 16.5295 24.0018C16.5295 22.4086 16.7924 21.2344 17.2727 19.7938C17.8651 18.0167 18.7923 16.3815 19.9789 14.9724C20.2471 14.6219 20.9657 13.8683 21.1743 13.4161C21.2532 13.2443 21.0288 13.1479 21.0165 13.0866C21.0025 13.0183 20.7011 13.0726 20.6344 13.0235C20.4206 12.8623 19.9964 12.7799 19.7388 12.7045C19.1884 12.5451 18.277 12.1945 17.7705 11.83C16.1702 10.6803 13.6708 9.30627 12.1459 7.64832Z" fill="url(#paint4_radial_178_1613)"/>
<path d="M17.8055 13.0919C21.5178 15.3895 22.5853 11.9334 25.0549 10.8503L20.7606 1.7561C19.1814 2.43436 17.6881 3.2756 16.3034 4.26056C14.2352 5.73098 12.4088 7.52389 10.9014 9.56566L17.8055 13.0919Z" fill="url(#paint5_radial_178_1613)"/>
<path d="M19.3164 36.2944C14.3333 38.1311 13.5516 38.1977 13.0941 41.3523C13.9705 42.2269 14.9135 43.0348 15.9143 43.7674C18.5995 45.7338 23.7666 48.3522 30.3727 48.3522C30.3797 48.3522 30.3885 48.3522 30.3955 48.3522V38.1363C30.3955 38.1363 30.385 38.1363 30.3797 38.1363C27.9049 38.1363 25.9278 37.4721 23.9016 36.3189C23.402 36.035 22.4959 36.7991 22.0349 36.4574C21.3986 35.9859 19.8685 36.864 19.3181 36.2961L19.3164 36.2944Z" fill="url(#paint6_radial_178_1613)"/>
<path opacity="0.5" d="M27.4772 37.8139V48.1735C28.4009 48.2839 29.3631 48.3505 30.3727 48.3505C31.3823 48.3505 32.3638 48.2979 33.3138 48.1997V37.8822C32.2482 38.068 31.2438 38.1346 30.3797 38.1346C29.3842 38.1346 28.4149 38.0154 27.4772 37.8121V37.8139Z" fill="url(#paint7_linear_178_1613)"/>
</g>
</g>
<path d="M6.2994 56.1976L5.00042 57.3185L5.39617 58.9947C5.41801 59.0857 5.41239 59.1812 5.38002 59.269C5.34764 59.3568 5.28998 59.433 5.2143 59.488C5.13862 59.5431 5.04833 59.5745 4.95482 59.5782C4.86132 59.582 4.7688 59.5579 4.68895 59.5091L3.2312 58.612L1.77259 59.5091C1.69275 59.5576 1.60034 59.5815 1.507 59.5776C1.41366 59.5737 1.32355 59.5423 1.24803 59.4873C1.17251 59.4323 1.11495 59.3562 1.0826 59.2685C1.05025 59.1809 1.04455 59.0856 1.06623 58.9947L1.46343 57.3185L0.164448 56.1976C0.0938113 56.1365 0.0427258 56.056 0.017571 55.9661C-0.00758384 55.8762 -0.00569303 55.7809 0.0230072 55.692C0.0517075 55.6032 0.105945 55.5248 0.178947 55.4666C0.251949 55.4084 0.340479 55.373 0.433482 55.3648L2.13659 55.2274L2.79359 53.6374C2.82915 53.5508 2.88968 53.4767 2.96747 53.4245C3.04527 53.3723 3.13682 53.3445 3.23048 53.3445C3.32415 53.3445 3.4157 53.3723 3.49349 53.4245C3.57128 53.4767 3.63181 53.5508 3.66737 53.6374L4.32408 55.2274L6.02719 55.3648C6.12038 55.3727 6.20917 55.4079 6.28243 55.466C6.3557 55.5241 6.41019 55.6026 6.43907 55.6915C6.46795 55.7805 6.46993 55.876 6.44478 55.966C6.41963 56.0561 6.36845 56.1368 6.29767 56.1979L6.2994 56.1976Z" fill="#FFCD0A"/>
<path d="M18.5208 56.1976L17.2219 57.3185L17.6176 58.9947C17.6394 59.0857 17.6338 59.1812 17.6015 59.269C17.5691 59.3568 17.5114 59.433 17.4357 59.488C17.3601 59.5431 17.2698 59.5745 17.1763 59.5782C17.0828 59.582 16.9902 59.5579 16.9104 59.5091L15.4526 58.612L13.994 59.5091C13.9142 59.5576 13.8218 59.5815 13.7284 59.5776C13.6351 59.5737 13.545 59.5423 13.4695 59.4873C13.3939 59.4323 13.3364 59.3562 13.304 59.2685C13.2717 59.1809 13.266 59.0856 13.2877 58.9947L13.6849 57.3185L12.3859 56.1976C12.3152 56.1365 12.2642 56.056 12.239 55.9661C12.2139 55.8762 12.2157 55.7809 12.2444 55.692C12.2731 55.6032 12.3274 55.5248 12.4004 55.4666C12.4734 55.4084 12.5619 55.373 12.6549 55.3648L14.358 55.2274L15.015 53.6374C15.0506 53.5508 15.1111 53.4767 15.1889 53.4245C15.2667 53.3723 15.3583 53.3445 15.4519 53.3445C15.5456 53.3445 15.6371 53.3723 15.7149 53.4245C15.7927 53.4767 15.8532 53.5508 15.8888 53.6374L16.5455 55.2274L18.2486 55.3648C18.3418 55.3727 18.4306 55.4079 18.5039 55.466C18.5771 55.5241 18.6316 55.6026 18.6605 55.6915C18.6894 55.7805 18.6914 55.876 18.6662 55.966C18.6411 56.0561 18.5899 56.1368 18.5191 56.1979L18.5208 56.1976Z" fill="#FFCD0A"/>
<path d="M30.7422 56.1976L29.4433 57.3185L29.839 58.9947C29.8609 59.0857 29.8552 59.1812 29.8229 59.269C29.7905 59.3568 29.7328 59.433 29.6571 59.488C29.5815 59.5431 29.4912 59.5745 29.3977 59.5782C29.3042 59.582 29.2116 59.5579 29.1318 59.5091L27.674 58.612L26.2154 59.5091C26.1356 59.5576 26.0432 59.5815 25.9498 59.5776C25.8565 59.5737 25.7664 59.5423 25.6909 59.4873C25.6154 59.4323 25.5578 59.3562 25.5254 59.2685C25.4931 59.1809 25.4874 59.0856 25.5091 58.9947L25.9063 57.3185L24.6073 56.1976C24.5367 56.1365 24.4856 56.056 24.4604 55.9661C24.4353 55.8762 24.4371 55.7809 24.4658 55.692C24.4945 55.6032 24.5488 55.5248 24.6218 55.4666C24.6948 55.4084 24.7833 55.373 24.8763 55.3648L26.5794 55.2274L27.2364 53.6374C27.272 53.5508 27.3325 53.4767 27.4103 53.4245C27.4881 53.3723 27.5797 53.3445 27.6733 53.3445C27.767 53.3445 27.8585 53.3723 27.9363 53.4245C28.0141 53.4767 28.0747 53.5508 28.1102 53.6374L28.7669 55.2274L30.47 55.3648C30.5632 55.3727 30.652 55.4079 30.7253 55.466C30.7985 55.5241 30.853 55.6026 30.8819 55.6915C30.9108 55.7805 30.9128 55.876 30.8876 55.966C30.8625 56.0561 30.8113 56.1368 30.7405 56.1979L30.7422 56.1976Z" fill="#FFCD0A"/>
<path d="M42.9637 56.1976L41.6647 57.3185L42.0605 58.9947C42.0823 59.0857 42.0767 59.1812 42.0443 59.269C42.0119 59.3568 41.9543 59.433 41.8786 59.488C41.8029 59.5431 41.7126 59.5745 41.6191 59.5782C41.5256 59.582 41.4331 59.5579 41.3532 59.5091L39.8955 58.612L38.4369 59.5091C38.357 59.5576 38.2646 59.5815 38.1713 59.5776C38.0779 59.5737 37.9878 59.5423 37.9123 59.4873C37.8368 59.4323 37.7792 59.3562 37.7469 59.2685C37.7145 59.1809 37.7088 59.0856 37.7305 58.9947L38.1277 57.3185L36.8287 56.1976C36.7581 56.1365 36.707 56.056 36.6818 55.9661C36.6567 55.8762 36.6586 55.7809 36.6873 55.692C36.716 55.6032 36.7702 55.5248 36.8432 55.4666C36.9162 55.4084 37.0048 55.373 37.0978 55.3648L38.8009 55.2274L39.4579 53.6374C39.4934 53.5508 39.554 53.4767 39.6317 53.4245C39.7095 53.3723 39.8011 53.3445 39.8948 53.3445C39.9884 53.3445 40.08 53.3723 40.1578 53.4245C40.2356 53.4767 40.2961 53.5508 40.3316 53.6374L40.9884 55.2274L42.6915 55.3648C42.7847 55.3727 42.8734 55.4079 42.9467 55.466C43.02 55.5241 43.0745 55.6026 43.1033 55.6915C43.1322 55.7805 43.1342 55.876 43.1091 55.966C43.0839 56.0561 43.0327 56.1368 42.9619 56.1979L42.9637 56.1976Z" fill="#FFCD0A"/>
<path d="M55.1851 56.1976L53.8861 57.3185L54.2819 58.9947C54.3037 59.0857 54.2981 59.1812 54.2657 59.269C54.2334 59.3568 54.1757 59.433 54.1 59.488C54.0243 59.5431 53.934 59.5745 53.8405 59.5782C53.747 59.582 53.6545 59.5579 53.5747 59.5091L52.1169 58.612L50.6583 59.5091C50.5785 59.5576 50.4861 59.5815 50.3927 59.5776C50.2994 59.5737 50.2093 59.5423 50.1337 59.4873C50.0582 59.4323 50.0007 59.3562 49.9683 59.2685C49.936 59.1809 49.9303 59.0856 49.9519 58.9947L50.3491 57.3185L49.0502 56.1976C48.9795 56.1365 48.9284 56.056 48.9033 55.9661C48.8781 55.8762 48.88 55.7809 48.9087 55.692C48.9374 55.6032 48.9917 55.5248 49.0647 55.4666C49.1377 55.4084 49.2262 55.373 49.3192 55.3648L51.0223 55.2274L51.6793 53.6374C51.7149 53.5508 51.7754 53.4767 51.8532 53.4245C51.931 53.3723 52.0225 53.3445 52.1162 53.3445C52.2099 53.3445 52.3014 53.3723 52.3792 53.4245C52.457 53.4767 52.5175 53.5508 52.5531 53.6374L53.2098 55.2274L54.9129 55.3648C55.0061 55.3727 55.0949 55.4079 55.1681 55.466C55.2414 55.5241 55.2959 55.6026 55.3248 55.6915C55.3537 55.7805 55.3556 55.876 55.3305 55.966C55.3053 56.0561 55.2542 56.1368 55.1834 56.1979L55.1851 56.1976Z" fill="#FFCD0A"/>
<defs>
<radialGradient id="paint0_radial_178_1613" cx="0" cy="0" r="1" gradientTransform="matrix(-0.976762 -23.9009 -35.1663 1.43689 23.856 40.7135)" gradientUnits="userSpaceOnUse">
<stop offset="0.14" stop-color="#1ABD4D"/>
<stop offset="0.25" stop-color="#6EC30D"/>
<stop offset="0.31" stop-color="#8AC502"/>
<stop offset="0.37" stop-color="#A2C600"/>
<stop offset="0.45" stop-color="#C8C903"/>
<stop offset="0.54" stop-color="#EBCB03"/>
<stop offset="0.62" stop-color="#F7CD07"/>
<stop offset="0.7" stop-color="#FDCD04"/>
<stop offset="0.77" stop-color="#FDCE05"/>
<stop offset="0.86" stop-color="#FFCE0A"/>
</radialGradient>
<radialGradient id="paint1_radial_178_1613" cx="0" cy="0" r="1" gradientUnits="userSpaceOnUse" gradientTransform="translate(46.0159 13.0599) scale(16.6061 21.3847)">
<stop offset="0.41" stop-color="#FB4E5A"/>
<stop offset="1" stop-color="#FF4540"/>
</radialGradient>
<radialGradient id="paint2_radial_178_1613" cx="0" cy="0" r="1" gradientTransform="matrix(-23.2286 12.864 -17.4773 -31.5529 36.8021 -3.36018)" gradientUnits="userSpaceOnUse">
<stop offset="0.23" stop-color="#FF4541"/>
<stop offset="0.31" stop-color="#FF4540"/>
<stop offset="0.46" stop-color="#FF4640"/>
<stop offset="0.54" stop-color="#FF473F"/>
<stop offset="0.7" stop-color="#FF5138"/>
<stop offset="0.77" stop-color="#FF5B33"/>
<stop offset="0.86" stop-color="#FF6C29"/>
<stop offset="1" stop-color="#FF8C18"/>
</radialGradient>
<radialGradient id="paint3_radial_178_1613" cx="0" cy="0" r="1" gradientTransform="matrix(-42.1173 -54.9827 20.2848 -15.5356 30.4056 45.1311)" gradientUnits="userSpaceOnUse">
<stop offset="0.13" stop-color="#0CBA65"/>
<stop offset="0.21" stop-color="#0BB86D"/>
<stop offset="0.3" stop-color="#09B479"/>
<stop offset="0.4" stop-color="#08AD93"/>
<stop offset="0.48" stop-color="#0AA6A9"/>
<stop offset="0.57" stop-color="#0D9CC6"/>
<stop offset="0.67" stop-color="#1893DD"/>
<stop offset="0.77" stop-color="#258BF1"/>
<stop offset="0.86" stop-color="#3086FF"/>
</radialGradient>
<radialGradient id="paint4_radial_178_1613" cx="0" cy="0" r="1" gradientTransform="matrix(-2.98897 25.7519 -35.5831 -4.12932 28.2037 4.18671)" gradientUnits="userSpaceOnUse">
<stop offset="0.37" stop-color="#FF4E3A"/>
<stop offset="0.46" stop-color="#FF8A1B"/>
<stop offset="0.54" stop-color="#FFA312"/>
<stop offset="0.62" stop-color="#FFB60C"/>
<stop offset="0.77" stop-color="#FFCD0A"/>
<stop offset="0.86" stop-color="#FECF0A"/>
<stop offset="0.92" stop-color="#FECF08"/>
<stop offset="1" stop-color="#FDCD01"/>
</radialGradient>
<radialGradient id="paint5_radial_178_1613" cx="0" cy="0" r="1" gradientTransform="matrix(-8.60005 9.51033 26.8771 24.3002 23.7732 4.0595)" gradientUnits="userSpaceOnUse">
<stop offset="0.32" stop-color="#FF4C3C"/>
<stop offset="0.6" stop-color="#FF692C"/>
<stop offset="0.73" stop-color="#FF7825"/>
<stop offset="0.88" stop-color="#FF8D1B"/>
<stop offset="1" stop-color="#FF9F13"/>
</radialGradient>
<radialGradient id="paint6_radial_178_1613" cx="0" cy="0" r="1" gradientTransform="matrix(-23.2286 -12.864 -17.4773 31.5529 36.7582 51.3992)" gradientUnits="userSpaceOnUse">
<stop offset="0.23" stop-color="#0FBC5F"/>
<stop offset="0.31" stop-color="#0FBC5F"/>
<stop offset="0.37" stop-color="#0FBC5E"/>
<stop offset="0.46" stop-color="#0FBC5D"/>
<stop offset="0.54" stop-color="#12BC58"/>
<stop offset="0.7" stop-color="#28BF3C"/>
<stop offset="0.77" stop-color="#38C02B"/>
<stop offset="0.86" stop-color="#52C218"/>
<stop offset="0.92" stop-color="#67C30F"/>
<stop offset="1" stop-color="#86C504"/>
</radialGradient>
<linearGradient id="paint7_linear_178_1613" x1="27.5647" y1="43.0701" x2="33.4152" y2="43.0701" gradientUnits="userSpaceOnUse">
<stop stop-color="#0FBC5C"/>
<stop offset="1" stop-color="#0CBA65"/>
</linearGradient>
<clipPath id="clip0_178_1613">
<rect width="47" height="48" fill="white" transform="translate(6.39511)"/>
</clipPath>
</defs>
</svg>
