<svg width="142" height="21" viewBox="0 0 142 21" fill="none" xmlns="http://www.w3.org/2000/svg">
<path d="M48.6607 8.0669C48.9034 8.0669 49.0594 8.26352 49.019 8.50061L48.5162 11.3399C48.4757 11.5828 48.2446 11.7736 48.0019 11.7736H36.9118L36.0564 16.5675H47.187C47.4297 16.5675 47.5858 16.7641 47.5453 17.0012L47.0425 19.8406C47.0021 20.0834 46.7709 20.2743 46.5282 20.2743H31.7799C31.5372 20.2743 31.3811 20.0777 31.4216 19.8406L34.8428 0.439473C34.8833 0.196598 35.1144 0.00576782 35.3572 0.00576782H50.1055C50.3482 0.00576782 50.5042 0.202381 50.4638 0.439473L49.961 3.2788C49.9205 3.52167 49.6894 3.7125 49.4466 3.7125H38.3161L37.559 8.06112H48.6491L48.6607 8.0669Z" fill="#FDFDFD"/>
<path d="M66.8591 10.1198C67.8935 9.15407 68.7373 7.94548 69.0898 6.47667C69.9393 2.92606 67.5063 0.0115662 63.9522 0.0115662H53.2146C52.9719 0.0115662 52.7465 0.208179 52.7003 0.445271L52.1975 3.2846C52.157 3.52747 52.3131 3.7183 52.5558 3.7183H63.5072C64.6399 3.7183 65.3218 4.91533 65.1311 6.00826C64.9404 7.1012 63.8713 8.02644 62.7386 8.02644H51.7641C51.5387 8.02644 51.3248 8.21149 51.2844 8.43701L49.2848 19.8464C49.2444 20.0892 49.4004 20.2801 49.6431 20.2801H60.5945C63.958 20.2801 67.1538 17.5622 67.7433 14.1966C68.0149 12.67 67.6046 11.259 66.8533 10.1661C66.8417 10.1487 66.8475 10.1314 66.8649 10.114L66.8591 10.1198ZM63.6806 14.2429C63.4899 15.3358 62.3803 16.5733 61.2418 16.5733H53.9486C53.9486 16.5733 53.9081 16.556 53.9139 16.5328C53.9139 16.5328 54.7345 11.8662 54.7519 11.8026H62.0451C63.1778 11.8026 63.8713 13.1442 63.6806 14.2429Z" fill="#FDFDFD"/>
<path d="M32.1266 0.0115657H28.9366C28.6939 0.0115657 28.4685 0.208179 28.4222 0.445271L26.4053 11.9009C26.0066 14.1561 24.0012 16.024 21.8341 16.157C20.6782 16.2264 19.6669 15.8389 18.9676 15.0582C18.2799 14.2891 18.0025 13.202 18.199 12.0801L20.2506 0.445271C20.291 0.202396 20.135 0.0115657 19.8923 0.0115657H16.6271C16.3844 0.0115657 16.159 0.208179 16.1127 0.445271L14.0958 11.9009C13.6971 14.1504 11.7148 16.024 9.54768 16.157C7.93531 16.2611 6.58299 15.4515 6.01086 13.9248C5.81437 13.3928 5.79126 12.7856 5.90106 12.1784L7.31116 4.16357C7.7157 1.86782 6.18424 0.00578287 3.88993 0.00578287H1.09284C0.850122 0.00578287 0.624737 0.202396 0.578504 0.439488L0.00637178 3.6836C-0.034082 3.92648 0.121954 4.11731 0.364677 4.11731H2.97683C3.13287 4.11731 3.23689 4.24453 3.208 4.40066L1.89614 11.8488C1.11018 16.3189 3.79747 20.0141 8.08556 20.2627C8.23582 20.2743 8.39186 20.2743 8.54789 20.2743C10.8884 20.2743 13.3214 19.2565 15.1939 17.487C16.5288 19.378 18.7711 20.4073 21.3255 20.2569C25.7003 20.0083 29.6936 16.3131 30.4796 11.843L32.4907 0.433705C32.5312 0.19083 32.3751 0 32.1324 0L32.1266 0.0115657Z" fill="#FDFDFD"/>
<path d="M90.7002 20.2714C88.7064 20.2714 87.0016 19.5717 85.9094 18.2995C84.7824 16.9868 84.3663 15.1537 84.7304 13.1239C85.4701 9.03554 89.163 5.95334 93.3239 5.95334C95.312 5.95334 97.011 6.65305 98.1033 7.92525C99.2302 9.24372 99.6521 11.0768 99.288 13.1008C98.554 17.1892 94.8554 20.2714 90.6945 20.2714H90.7002ZM92.9599 7.7402C89.9547 7.7402 87.3715 9.99547 86.8109 13.1008C86.5277 14.6853 86.834 16.102 87.6778 17.0851C88.4579 17.9988 89.6253 18.4787 91.0412 18.4787C94.0637 18.4787 96.6585 16.2235 97.2191 13.1182C97.5022 11.5452 97.1902 10.1343 96.3406 9.14541C95.5489 8.22595 94.3815 7.7402 92.9599 7.7402Z" fill="#FDFDFD"/>
<path d="M120.075 20.2714C118.434 20.2714 117.145 19.8261 116.354 18.9876C115.66 18.2532 115.354 17.062 115.458 16.0095C115.504 15.1479 115.683 14.5002 115.683 14.5002H117.608C117.608 14.5002 117.457 15.1826 117.423 15.9979C117.394 16.8133 117.602 17.3569 118.024 17.7848C118.538 18.3053 119.376 18.5655 120.509 18.5655C122.555 18.5655 123.994 17.6287 124.271 16.1194C124.6 14.3036 122.855 13.9509 121.012 13.575C118.792 13.1239 116.492 12.6555 117.012 9.75837C117.417 7.53201 119.365 5.98224 122.728 5.98224C124.15 5.98224 125.346 6.42751 126.097 7.23131C126.727 7.90211 127.016 8.79843 126.929 9.82776H124.988C124.999 9.22635 124.814 8.7406 124.456 8.37051C123.994 7.90211 123.254 7.66502 122.266 7.66502C120.607 7.66502 119.185 8.5729 118.96 9.81619C118.671 11.4007 120.312 11.6378 122.058 11.9674C124.288 12.3895 126.82 12.8695 126.253 15.9922C125.791 18.5539 123.306 20.2714 120.07 20.2714H120.075Z" fill="#FDFDFD"/>
<path d="M110.852 20.2714H110.777H109.748L110.153 18.2995C110.153 18.2995 108.592 20.2772 105.212 20.2772C103.778 20.2772 102.617 19.7972 101.86 18.8893C101.022 17.8889 100.715 16.4259 101.01 14.772L102.247 7.74599H100.791L101.103 5.97647H104.576L103.044 14.6737C102.854 15.7493 103.068 16.7208 103.645 17.4089C104.206 18.0797 105.067 18.4441 106.067 18.4441C108.344 18.4441 110.372 16.6919 110.783 14.3672L112.262 5.97647H114.279L112.071 18.5077H113.921L113.609 20.2772H110.846L110.852 20.2714Z" fill="#FDFDFD"/>
<path d="M79.0669 20.2714L80.5868 11.6262C80.7717 10.568 80.5579 9.60803 79.98 8.9141C79.4078 8.23174 78.5294 7.85008 77.5123 7.85008C75.2411 7.85008 73.1606 9.56755 72.7734 11.765L71.2766 20.2656H69.2597L72.5076 1.77242H70.2595L70.5716 0.00289917H74.8539L73.49 7.71707C73.49 7.71707 74.9868 5.9649 78.3329 5.9649C79.8297 5.9649 81.0087 6.45065 81.7773 7.37589C82.621 8.38209 82.9273 9.83355 82.6384 11.4701L81.4016 18.4961H83.2625L82.9504 20.2656H79.0727L79.0669 20.2714Z" fill="#FDFDFD"/>
<path d="M133.911 20.2714C131.969 20.2714 130.403 19.6411 129.368 18.4441C128.259 17.1487 127.854 15.2693 128.241 13.1413C128.657 10.8282 129.854 8.77532 131.564 7.49733C132.922 6.48535 134.621 5.98804 136.373 5.98804C138.262 5.98804 139.782 6.59523 140.77 7.74599C141.851 9.00084 142.238 10.8455 141.857 12.9389L141.701 13.8179H132.807L133.119 12.083H139.863V12.031C140.013 10.753 139.719 9.67742 139.031 8.92567C138.349 8.18548 137.286 7.7749 136.032 7.7749C133.859 7.7749 131.275 9.55599 130.622 12.0079C130.617 12.031 130.437 12.644 130.38 12.91C130.328 13.1818 130.229 13.8583 130.229 13.8583C130.033 15.2635 130.316 16.4374 131.05 17.2644C131.767 18.0624 132.882 18.4845 134.275 18.4845C136.286 18.4845 138.158 17.513 139.054 16.0037H141.146C139.84 18.6002 137.008 20.2714 133.905 20.2714H133.911Z" fill="#FDFDFD"/>
</svg>
