<svg width="222" height="164" viewBox="0 0 222 164" fill="none" xmlns="http://www.w3.org/2000/svg">
<path d="M158.991 24.3596C159.72 24.3596 160.2 24.9483 160.072 25.6777L158.562 34.2583C158.434 34.9877 157.743 35.5764 157.014 35.5764H123.478L120.893 50.0693H154.557C155.286 50.0693 155.766 50.658 155.638 51.3875L154.128 59.968C154 60.6975 153.309 61.2861 152.579 61.2861H107.981C107.251 61.2861 106.772 60.6975 106.9 59.968L117.24 1.32447C117.368 0.595023 118.059 0.00634766 118.788 0.00634766H163.387C164.116 0.00634766 164.596 0.595023 164.468 1.32447L162.958 9.90505C162.83 10.6345 162.139 11.2232 161.41 11.2232H127.746L125.456 24.3596H158.991Z" fill="#FF2840"/>
<path d="M214.032 30.5599C217.167 27.6357 219.701 23.9949 220.77 19.5414C223.342 8.81728 215.984 0.00634766 205.234 0.00634766H172.761C172.031 0.00634766 171.34 0.595023 171.212 1.32447L169.702 9.90505C169.574 10.6345 170.061 11.2232 170.784 11.2232H203.89C207.32 11.2232 209.38 14.8384 208.798 18.1465C208.216 21.4546 204.984 24.2444 201.555 24.2444H168.365C167.68 24.2444 167.034 24.7947 166.912 25.4793L160.872 59.9616C160.744 60.6911 161.23 61.2798 161.953 61.2798H195.06C205.227 61.2798 214.889 53.0703 216.681 42.9028C217.494 38.283 216.259 34.0279 213.994 30.7262C213.962 30.6814 213.974 30.6175 214.019 30.5727L214.032 30.5599ZM204.415 43.0116C203.833 46.3197 200.48 50.0565 197.044 50.0565H175C174.93 50.0565 174.885 49.9989 174.898 49.935C174.898 49.935 177.381 35.8387 177.432 35.6468H199.475C202.905 35.6468 204.997 39.7035 204.415 43.0116Z" fill="#FF2840"/>
<path d="M108.998 0.00639864H99.3427C98.6133 0.00639864 97.9222 0.595074 97.7942 1.32452L91.6899 35.9412C90.487 42.7493 84.4147 48.3993 77.8625 48.8088C74.3688 49.02 71.2975 47.8491 69.1987 45.4816C67.1256 43.1524 66.2809 39.8699 66.8824 36.4787L73.0891 1.32452C73.2171 0.595074 72.7308 0.00639864 72.0077 0.00639864H62.1346C61.4052 0.00639864 60.7141 0.595074 60.5861 1.32452L54.4818 35.9476C53.2789 42.7557 47.277 48.4057 40.7248 48.8152C35.8554 49.1288 31.7667 46.6909 30.0326 42.0711C29.4312 40.465 29.3736 38.6286 29.6999 36.7922L33.9678 12.5797C35.1835 5.6372 30.5509 0.00639864 23.6148 0.00639864H15.1558C14.4263 0.00639864 13.7353 0.595074 13.6073 1.32452L12.0204 10.2762C11.8925 11.0057 12.3788 11.5943 13.1018 11.5943H20.9913C21.4584 11.5943 21.772 11.9719 21.6888 12.439L17.5745 35.8004C15.1942 49.3143 23.3268 60.48 36.2905 61.2286C36.7512 61.2542 37.2183 61.267 37.6854 61.267C44.7559 61.267 52.1207 58.1893 57.7771 52.8464C61.8083 58.5604 68.5908 61.6765 76.314 61.2222C89.54 60.4736 101.614 49.3015 103.995 35.794L110.073 1.31812C110.201 0.588675 109.715 0 108.992 0L108.998 0.00639864Z" fill="#FF2840"/>
<path d="M62.1628 119.994C56.3784 119.994 51.4451 117.965 48.2842 114.28C45.0272 110.485 43.8115 105.162 44.8737 99.2876C47.0108 87.4501 57.7221 78.5176 69.79 78.5176C75.5616 78.5176 80.4821 80.5523 83.6431 84.238C86.9128 88.0516 88.1349 93.3752 87.0791 99.23C84.942 111.067 74.2307 120 62.1692 120L62.1628 119.994ZM68.7086 83.7005C60.0065 83.7005 52.5073 90.2271 50.8884 99.2236C50.063 103.818 50.9524 107.913 53.4031 110.773C55.6682 113.409 59.0403 114.811 63.1546 114.811C71.9079 114.811 79.4327 108.284 81.058 99.2876C81.877 94.7381 80.9748 90.6494 78.5049 87.7764C76.2206 85.1146 72.8293 83.7069 68.7086 83.7069V83.7005Z" fill="#FF2840"/>
<path d="M146.945 119.993C142.184 119.993 138.447 118.707 136.157 116.269C134.154 114.145 133.258 110.696 133.559 107.638C133.7 105.136 134.429 102.807 134.429 102.807H140.002C140.002 102.807 139.343 105.238 139.254 107.599C139.164 109.96 139.772 111.528 141.007 112.769C142.504 114.273 144.929 115.034 148.218 115.034C154.15 115.034 158.328 112.321 159.115 107.951C160.068 102.698 155.014 101.674 149.671 100.586C143.234 99.281 136.573 97.9245 138.089 89.5423C139.254 83.0988 144.904 78.6006 154.655 78.6006C158.77 78.6006 162.244 79.8867 164.426 82.2222C166.25 84.1674 167.081 86.7653 166.838 89.7406H161.214C161.239 88.0002 160.721 86.5861 159.665 85.5239C158.315 84.1674 156.184 83.4764 153.318 83.4764C148.506 83.4764 144.392 86.1062 143.739 89.7022C142.907 94.2901 147.661 94.9811 152.716 95.9409C159.185 97.163 166.512 98.5452 164.874 107.599C163.53 115.009 156.332 119.993 146.951 119.993H146.945Z" fill="#FF2840"/>
<path d="M120.186 119.994L119.975 119.981H116.993L118.17 114.26C118.17 114.26 113.646 119.994 103.85 119.994C99.6973 119.994 96.338 118.605 94.1304 115.975C91.6925 113.07 90.8223 108.841 91.6606 104.055L95.2502 83.7069H91.0207L91.9229 78.5752H101.994L97.5537 103.76C97.0034 106.87 97.6305 109.685 99.3069 111.682C100.932 113.621 103.428 114.689 106.326 114.689C112.93 114.689 118.797 109.609 119.987 102.877L124.274 78.5752H130.123L123.731 114.868H129.093L128.19 120H120.179L120.186 119.994Z" fill="#FF2840"/>
<path d="M28.4356 119.994L32.8506 94.9622C33.3881 91.8972 32.7611 89.1138 31.0846 87.1111C29.421 85.1275 26.8743 84.0333 23.9245 84.0333C17.3403 84.0333 11.3128 89.0115 10.193 95.3717L5.85476 119.994H0L9.4124 66.4178H2.89859L3.80079 61.2861H16.2078L12.247 83.6366C12.247 83.6366 16.5917 78.5689 26.2728 78.5689C30.6175 78.5689 34.0216 79.983 36.2611 82.6576C38.7054 85.569 39.5884 89.7793 38.7566 94.5143L35.1669 114.868H40.5674L39.6652 120H28.4164L28.4356 119.994Z" fill="#FF2840"/>
<path d="M187.403 119.993C181.779 119.993 177.23 118.163 174.248 114.695C171.023 110.946 169.865 105.494 170.978 99.3321C172.187 92.6264 175.649 86.6884 180.614 82.9836C184.543 80.053 189.483 78.6069 194.557 78.6069C200.034 78.6069 204.437 80.3666 207.303 83.6939C210.925 88.2817 211.238 93.2406 210.458 98.7307C209.997 101.552 209.741 102.308 209.741 102.308H183.961L185.081 96.4911H204.635L204.693 96.1072C205.108 92.4024 204.264 89.2927 202.261 87.1107C200.284 84.9608 197.2 83.7834 193.565 83.7834C187.269 83.7834 179.783 88.9407 177.889 96.0496C177.869 96.12 177.345 97.886 177.191 98.6667C177.038 99.4473 176.763 101.418 176.763 101.418C176.187 105.488 177.012 108.898 179.136 111.278C181.21 113.595 184.441 114.823 188.478 114.823C194.308 114.823 199.734 112.008 202.325 107.644H208.385C204.603 115.156 196.4 120 187.403 120V119.993Z" fill="#FF2840"/>
<path d="M1.232 154L10.952 137.2H12.68L16.784 154H15.224L13.976 148.792H5.984L3.008 154H1.232ZM6.8 147.4H13.64L11.624 138.976L6.8 147.4ZM26.5145 154.288C24.8025 154.288 23.3465 153.912 22.1465 153.16C20.9465 152.408 20.0825 151.376 19.5545 150.064C19.0265 148.736 18.8985 147.224 19.1705 145.528C19.3945 144.264 19.8025 143.104 20.3945 142.048C20.9865 140.992 21.7305 140.08 22.6265 139.312C23.5225 138.544 24.5305 137.952 25.6505 137.536C26.7705 137.12 27.9625 136.912 29.2265 136.912C30.0905 136.912 30.9225 137.064 31.7225 137.368C32.5385 137.656 33.2585 138.056 33.8825 138.568C34.5225 139.08 35.0105 139.664 35.3465 140.32L34.0745 141.112C33.8185 140.552 33.4345 140.064 32.9225 139.648C32.4265 139.216 31.8505 138.888 31.1945 138.664C30.5545 138.424 29.8905 138.304 29.2025 138.304C28.1465 138.304 27.1385 138.488 26.1785 138.856C25.2345 139.208 24.3785 139.72 23.6105 140.392C22.8585 141.048 22.2265 141.832 21.7145 142.744C21.2025 143.64 20.8585 144.632 20.6825 145.72C20.4585 147.112 20.5545 148.352 20.9705 149.44C21.3865 150.512 22.0745 151.36 23.0345 151.984C24.0105 152.592 25.1865 152.896 26.5625 152.896C27.7465 152.896 28.8425 152.648 29.8505 152.152C30.8585 151.64 31.6985 150.944 32.3705 150.064C33.0585 149.168 33.4985 148.152 33.6905 147.016H29.4665L29.7065 145.6H35.4185L35.1785 147.016C35.0025 148.088 34.6585 149.072 34.1465 149.968C33.6345 150.848 32.9865 151.616 32.2025 152.272C31.4345 152.912 30.5625 153.408 29.5865 153.76C28.6265 154.112 27.6025 154.288 26.5145 154.288ZM37.3529 154L40.1609 137.2H49.8329L49.6169 138.592H41.4569L40.4489 144.64H48.0089L47.7929 146.032H40.2329L39.1289 152.608H47.2649L47.0249 154H37.3529ZM41.4329 135.856L44.8169 132.832H46.7609V132.856L43.4729 135.856H41.4329ZM47.4329 135.856L45.0569 132.832H45.1049H46.7849L49.1609 135.856H47.4329ZM51.5795 154L54.3875 137.2H55.9235L64.2275 151.6L66.6275 137.2H68.1635L65.3555 154H63.8195L55.5395 139.624L53.1155 154H51.5795ZM77.1494 154.288C75.5494 154.288 74.1894 153.912 73.0694 153.16C71.9654 152.408 71.1734 151.376 70.6934 150.064C70.2134 148.736 70.1094 147.216 70.3814 145.504C70.6054 144.24 70.9974 143.088 71.5574 142.048C72.1174 140.992 72.8134 140.08 73.6454 139.312C74.4934 138.544 75.4374 137.952 76.4774 137.536C77.5174 137.12 78.6214 136.912 79.7894 136.912C80.7494 136.912 81.6534 137.088 82.5014 137.44C83.3654 137.792 84.1174 138.28 84.7574 138.904C85.3974 139.528 85.8534 140.24 86.1254 141.04L84.7814 141.736C84.5574 141.048 84.1894 140.448 83.6774 139.936C83.1654 139.424 82.5734 139.024 81.9014 138.736C81.2294 138.448 80.5174 138.304 79.7654 138.304C78.8054 138.304 77.8854 138.488 77.0054 138.856C76.1414 139.208 75.3574 139.72 74.6534 140.392C73.9494 141.048 73.3574 141.824 72.8774 142.72C72.3974 143.616 72.0694 144.608 71.8934 145.696C71.6534 147.12 71.7174 148.376 72.0854 149.464C72.4694 150.552 73.1014 151.408 73.9814 152.032C74.8614 152.64 75.9334 152.944 77.1974 152.944C77.9974 152.944 78.7974 152.776 79.5974 152.44C80.4134 152.104 81.1654 151.648 81.8534 151.072C82.5574 150.48 83.1334 149.816 83.5814 149.08L84.7574 149.968C84.1974 150.816 83.5014 151.568 82.6694 152.224C81.8374 152.88 80.9414 153.392 79.9814 153.76C79.0214 154.112 78.0774 154.288 77.1494 154.288ZM87.4389 154L90.2469 137.2H91.7829L88.9749 154H87.4389ZM91.607 154L101.327 137.2H103.055L107.159 154H105.599L104.351 148.792H96.359L93.383 154H91.607ZM97.175 147.4H104.015L101.999 138.976L97.175 147.4ZM115.798 154L118.606 137.2H123.622C125.126 137.2 126.398 137.568 127.438 138.304C128.494 139.024 129.254 140.024 129.718 141.304C130.182 142.568 130.27 144.032 129.982 145.696C129.774 146.912 129.398 148.032 128.854 149.056C128.31 150.064 127.622 150.936 126.79 151.672C125.974 152.408 125.054 152.984 124.03 153.4C123.022 153.8 121.95 154 120.814 154H115.798ZM117.574 152.608H121.006C121.87 152.608 122.71 152.424 123.526 152.056C124.358 151.688 125.11 151.176 125.782 150.52C126.47 149.864 127.046 149.112 127.51 148.264C127.99 147.4 128.31 146.48 128.47 145.504C128.694 144.224 128.614 143.064 128.23 142.024C127.846 140.984 127.23 140.152 126.382 139.528C125.55 138.904 124.558 138.592 123.406 138.592H119.902L117.574 152.608ZM132.181 154L134.989 137.2H136.525L133.717 154H132.181ZM146.069 154.288C144.357 154.288 142.901 153.912 141.701 153.16C140.501 152.408 139.637 151.376 139.109 150.064C138.581 148.736 138.453 147.224 138.725 145.528C138.949 144.264 139.357 143.104 139.949 142.048C140.541 140.992 141.285 140.08 142.181 139.312C143.077 138.544 144.085 137.952 145.205 137.536C146.325 137.12 147.517 136.912 148.781 136.912C149.645 136.912 150.477 137.064 151.277 137.368C152.093 137.656 152.813 138.056 153.437 138.568C154.077 139.08 154.565 139.664 154.901 140.32L153.629 141.112C153.373 140.552 152.989 140.064 152.477 139.648C151.981 139.216 151.405 138.888 150.749 138.664C150.109 138.424 149.445 138.304 148.757 138.304C147.701 138.304 146.693 138.488 145.733 138.856C144.789 139.208 143.933 139.72 143.165 140.392C142.413 141.048 141.781 141.832 141.269 142.744C140.757 143.64 140.413 144.632 140.237 145.72C140.013 147.112 140.109 148.352 140.525 149.44C140.941 150.512 141.629 151.36 142.589 151.984C143.565 152.592 144.741 152.896 146.117 152.896C147.301 152.896 148.397 152.648 149.405 152.152C150.413 151.64 151.253 150.944 151.925 150.064C152.613 149.168 153.053 148.152 153.245 147.016H149.021L149.261 145.6H154.973L154.733 147.016C154.557 148.088 154.213 149.072 153.701 149.968C153.189 150.848 152.541 151.616 151.757 152.272C150.989 152.912 150.117 153.408 149.141 153.76C148.181 154.112 147.157 154.288 146.069 154.288ZM156.439 154L159.247 137.2H160.783L157.975 154H156.439ZM166.079 154L168.671 138.592H163.199L163.415 137.2H175.895L175.679 138.592H170.207L167.615 154H166.079ZM171.88 154L181.6 137.2H183.328L187.432 154H185.872L184.624 148.792H176.632L173.656 154H171.88ZM177.448 147.4H184.288L182.272 138.976L177.448 147.4ZM190.072 154L192.88 137.2H194.416L191.848 152.608H199.984L199.744 154H190.072Z" fill="white"/>
</svg>
