<svg width="32" height="32" viewBox="0 0 32 32" fill="none" xmlns="http://www.w3.org/2000/svg">
<mask id="mask0_165_465" style="mask-type:luminance" maskUnits="userSpaceOnUse" x="0" y="0" width="32" height="32">
<path d="M15.8793 31.7585C24.6491 31.7585 31.7585 24.6491 31.7585 15.8793C31.7585 7.10939 24.6491 0 15.8793 0C7.10939 0 0 7.10939 0 15.8793C0 24.6491 7.10939 31.7585 15.8793 31.7585Z" fill="white"/>
</mask>
<g mask="url(#mask0_165_465)">
<path d="M53.1913 -0.0657501H-7.39819V31.8243H53.1913V-0.0657501Z" fill="#B22234"/>
<path d="M16.8384 -0.0657501H-7.39819V17.1052H16.8384V-0.0657501Z" fill="#3C3B6E"/>
<path d="M0.680623 2.38614L1.25686 4.16124L-0.251404 3.06292H1.61652L0.108258 4.16124L0.68449 2.38614H0.680623Z" fill="white"/>
<path d="M0.680623 5.82033L1.25686 7.59543L-0.251404 6.49711H1.61652L0.108258 7.59543L0.68449 5.82033H0.680623Z" fill="white"/>
<path d="M0.680623 9.25452L1.25686 11.0296L-0.251404 9.9313H1.61652L0.108258 11.0296L0.68449 9.25452H0.680623Z" fill="white"/>
<path d="M0.680623 12.6887L1.25686 14.4638L-0.251404 13.3655H1.61652L0.108258 14.4638L0.68449 12.6887H0.680623Z" fill="white"/>
<path d="M2.69942 0.669037L3.27565 2.44414L1.7674 1.34582H3.63532L2.12706 2.44414L2.70329 0.669037H2.69942Z" fill="white"/>
<path d="M2.69942 4.10323L3.27565 5.87833L1.7674 4.78001H3.63532L2.12706 5.87833L2.70329 4.10323H2.69942Z" fill="white"/>
<path d="M2.69942 7.53741L3.27565 9.31252L1.7674 8.2142H3.63532L2.12706 9.31252L2.70329 7.53741H2.69942Z" fill="white"/>
<path d="M2.69942 10.9716L3.27565 12.7467L1.7674 11.6484H3.63532L2.12706 12.7467L2.70329 10.9716H2.69942Z" fill="white"/>
<path d="M2.69942 14.4058L3.27565 16.1809L1.7674 15.0826H3.63532L2.12706 16.1809L2.70329 14.4058H2.69942Z" fill="white"/>
<path d="M4.71816 2.38614L5.29439 4.16124L3.78613 3.06292H5.65405L4.14579 4.16124L4.72203 2.38614H4.71816Z" fill="white"/>
<path d="M4.71816 5.82033L5.29439 7.59543L3.78613 6.49711H5.65405L4.14579 7.59543L4.72203 5.82033H4.71816Z" fill="white"/>
<path d="M4.71816 9.25452L5.29439 11.0296L3.78613 9.9313H5.65405L4.14579 11.0296L4.72203 9.25452H4.71816Z" fill="white"/>
<path d="M4.71816 12.6887L5.29439 14.4638L3.78613 13.3655H5.65405L4.14579 14.4638L4.72203 12.6887H4.71816Z" fill="white"/>
<path d="M6.74074 0.669037L7.31697 2.44414L5.80872 1.34582H7.67664L6.16838 2.44414L6.74461 0.669037H6.74074Z" fill="white"/>
<path d="M6.74074 4.10323L7.31697 5.87833L5.80872 4.78001H7.67664L6.16838 5.87833L6.74461 4.10323H6.74074Z" fill="white"/>
<path d="M6.74074 7.53741L7.31697 9.31252L5.80872 8.2142H7.67664L6.16838 9.31252L6.74461 7.53741H6.74074Z" fill="white"/>
<path d="M6.74074 10.9716L7.31697 12.7467L5.80872 11.6484H7.67664L6.16838 12.7467L6.74461 10.9716H6.74074Z" fill="white"/>
<path d="M6.74074 14.4058L7.31697 16.1809L5.80872 15.0826H7.67664L6.16838 16.1809L6.74461 14.4058H6.74074Z" fill="white"/>
<path d="M8.75948 2.38614L9.33571 4.16124L7.82745 3.06292H9.69538L8.18712 4.16124L8.76335 2.38614H8.75948Z" fill="white"/>
<path d="M8.75948 5.82033L9.33571 7.59543L7.82745 6.49711H9.69538L8.18712 7.59543L8.76335 5.82033H8.75948Z" fill="white"/>
<path d="M8.75948 9.25452L9.33571 11.0296L7.82745 9.9313H9.69538L8.18712 11.0296L8.76335 9.25452H8.75948Z" fill="white"/>
<path d="M8.75948 12.6887L9.33571 14.4638L7.82745 13.3655H9.69538L8.18712 14.4638L8.76335 12.6887H8.75948Z" fill="white"/>
<path d="M10.7783 0.669037L11.3545 2.44414L9.84625 1.34582H11.7142L10.2059 2.44414L10.7821 0.669037H10.7783Z" fill="white"/>
<path d="M10.7783 4.10323L11.3545 5.87833L9.84625 4.78001H11.7142L10.2059 5.87833L10.7821 4.10323H10.7783Z" fill="white"/>
<path d="M10.7783 7.53741L11.3545 9.31252L9.84625 8.2142H11.7142L10.2059 9.31252L10.7821 7.53741H10.7783Z" fill="white"/>
<path d="M10.7783 10.9716L11.3545 12.7467L9.84625 11.6484H11.7142L10.2059 12.7467L10.7821 10.9716H10.7783Z" fill="white"/>
<path d="M10.7783 14.4058L11.3545 16.1809L9.84625 15.0826H11.7142L10.2059 16.1809L10.7821 14.4058H10.7783Z" fill="white"/>
<path d="M12.797 2.38614L13.3732 4.16124L11.865 3.06292H13.7329L12.2247 4.16124L12.8009 2.38614H12.797Z" fill="white"/>
<path d="M12.797 5.82033L13.3732 7.59543L11.865 6.49711H13.7329L12.2247 7.59543L12.8009 5.82033H12.797Z" fill="white"/>
<path d="M12.797 9.25452L13.3732 11.0296L11.865 9.9313H13.7329L12.2247 11.0296L12.8009 9.25452H12.797Z" fill="white"/>
<path d="M12.797 12.6887L13.3732 14.4638L11.865 13.3655H13.7329L12.2247 14.4638L12.8009 12.6887H12.797Z" fill="white"/>
<path d="M14.8158 0.669037L15.392 2.44414L13.8837 1.34582H15.7516L14.2434 2.44414L14.8196 0.669037H14.8158Z" fill="white"/>
<path d="M14.8158 4.10323L15.392 5.87833L13.8837 4.78001H15.7516L14.2434 5.87833L14.8196 4.10323H14.8158Z" fill="white"/>
<path d="M14.8158 7.53741L15.392 9.31252L13.8837 8.2142H15.7516L14.2434 9.31252L14.8196 7.53741H14.8158Z" fill="white"/>
<path d="M14.8158 10.9716L15.392 12.7467L13.8837 11.6484H15.7516L14.2434 12.7467L14.8196 10.9716H14.8158Z" fill="white"/>
<path d="M14.8158 14.4058L15.392 16.1809L13.8837 15.0826H15.7516L14.2434 16.1809L14.8196 14.4058H14.8158Z" fill="white"/>
<path d="M53.0598 2.38614H16.8384V4.68333H53.0598V2.38614Z" fill="white"/>
<path d="M53.0598 7.4678H16.8384V9.765H53.0598V7.4678Z" fill="white"/>
<path d="M53.0598 12.1859H16.8384V14.4831H53.0598V12.1859Z" fill="white"/>
<path d="M53.0598 17.1129H-7.39819V19.4101H53.0598V17.1129Z" fill="white"/>
<path d="M53.0598 21.9587H-7.39819V24.2559H53.0598V21.9587Z" fill="white"/>
<path d="M53.0598 27.1061H-7.39819V29.4033H53.0598V27.1061Z" fill="white"/>
</g>
</svg>
