<svg width="1640" height="232" viewBox="0 0 1640 232" fill="none" xmlns="http://www.w3.org/2000/svg">
<path d="M556.613 94.4915C559.378 94.4915 561.208 96.7268 560.72 99.4498L554.986 131.923C554.498 134.686 551.896 136.881 549.131 136.881H421.688L412.417 189.512H539.859C542.624 189.512 544.454 191.748 543.966 194.471L538.233 226.944C537.745 229.707 535.142 231.902 532.377 231.902H363.538C360.773 231.902 358.943 229.667 359.431 226.944L398.591 5.11994C399.079 2.35629 401.681 0.161621 404.446 0.161621H573.285C576.051 0.161621 577.881 2.39693 577.393 5.11994L571.659 37.5928C571.171 40.3565 568.568 42.5511 565.803 42.5511H438.361L429.211 94.4509H556.654L556.613 94.4915Z" fill="#151515"/>
<path d="M764.978 115.747C776.852 104.693 786.449 90.915 790.474 74.0486C800.234 33.488 772.379 0.161621 731.674 0.161621H608.745C605.98 0.161621 603.377 2.39693 602.889 5.11994L597.155 37.5928C596.668 40.3565 598.497 42.5511 601.263 42.5511H726.59C739.562 42.5511 747.37 56.2068 745.174 68.7245C742.978 81.2423 730.332 94.8979 717.36 94.8979H591.747C589.185 94.8979 586.705 96.9707 586.257 99.5718L563.811 226.903C563.323 229.667 565.153 231.861 567.918 231.861H693.246C731.755 231.861 768.312 200.811 775.103 162.323C778.194 144.847 773.477 128.753 764.937 116.276C764.815 116.113 764.856 115.869 765.059 115.707L764.978 115.747ZM728.583 162.851C726.387 175.369 713.659 189.512 700.687 189.512H617.244C617 189.512 616.796 189.309 616.878 189.065L625.987 137.369C626.027 137.125 626.271 136.922 626.556 136.922H709.999C722.971 136.922 730.82 150.374 728.624 162.892L728.583 162.851Z" fill="#151515"/>
<path d="M367.401 0.161621H330.844C328.079 0.161621 325.476 2.39693 324.988 5.11994L301.891 136.109C297.336 161.876 274.361 183.254 249.555 184.798C236.339 185.611 224.709 181.181 216.78 172.24C208.932 163.42 205.76 150.984 207.996 138.182L231.46 5.11994C231.948 2.35629 230.118 0.161621 227.353 0.161621H189.982C187.217 0.161621 184.614 2.39693 184.126 5.11994L161.029 136.109C156.474 161.876 133.743 183.254 108.938 184.798C90.5166 185.977 75.0234 176.751 68.4764 159.275C66.1992 153.178 65.9959 146.229 67.2158 139.32L83.3596 47.7127C87.9954 21.458 70.469 0.161621 44.1997 0.161621H12.1561C9.43157 0.161621 6.78838 2.39693 6.30041 5.11994L0.0787422 39.9907C-0.409232 42.7544 1.42067 44.949 4.18586 44.949H34.0336C35.8228 44.949 37.0021 46.3715 36.6768 48.1597L21.3463 135.581C12.3188 186.708 43.1424 228.976 92.1838 231.78C93.9324 231.902 95.6809 231.943 97.4702 231.943C124.227 231.943 152.123 220.278 173.553 200.079C188.803 221.701 214.503 233.487 243.74 231.78C293.798 228.935 339.505 186.667 348.533 135.581L371.508 5.11994C371.996 2.35629 370.166 0.161621 367.401 0.161621Z" fill="#151515"/>
<path d="M1052.58 231.862C1029.72 231.862 1010.25 223.856 997.721 209.306C984.83 194.309 980.072 173.297 984.22 150.091C992.678 103.312 1035.01 68.0752 1082.67 68.0752C1105.48 68.0752 1124.92 76.0817 1137.4 90.6721C1150.33 105.75 1155.17 126.762 1150.99 149.887C1142.57 196.666 1100.24 231.903 1052.54 231.903L1052.58 231.862ZM1078.44 88.5181C1044.04 88.5181 1014.43 114.285 1008.01 149.847C1004.76 167.973 1008.25 184.189 1017.97 195.447C1026.92 205.851 1040.26 211.379 1056.52 211.379C1091.13 211.379 1120.85 185.612 1127.28 150.05C1130.53 132.086 1126.95 115.951 1117.19 104.612C1108.17 94.086 1094.79 88.5181 1078.48 88.5181H1078.44Z" fill="#151515"/>
<path d="M1387.65 231.862C1368.82 231.862 1354.06 226.782 1345 217.15C1337.07 208.777 1333.53 195.122 1334.75 183.051C1335.32 173.175 1338.16 163.99 1338.16 163.99H1360.2C1360.2 163.99 1357.6 173.582 1357.24 182.929C1356.87 192.277 1359.27 198.454 1364.15 203.331C1370.04 209.265 1379.64 212.273 1392.65 212.273C1416.12 212.273 1432.59 201.543 1435.72 184.27C1439.46 163.543 1419.53 159.479 1398.39 155.171C1372.93 150.009 1346.62 144.685 1352.6 111.521C1357.19 86.0795 1379.52 68.2783 1418.07 68.2783C1434.34 68.2783 1448.04 73.3586 1456.7 82.5843C1463.9 90.2656 1467.19 100.548 1466.26 112.253H1444.01C1444.14 105.384 1442.06 99.7758 1437.91 95.5897C1432.59 90.225 1424.17 87.502 1412.82 87.502C1393.83 87.502 1377.53 97.8656 1374.96 112.09C1371.67 130.217 1390.46 132.94 1410.42 136.719C1435.96 141.556 1464.96 147.002 1458.49 182.767C1453.2 212.029 1424.74 231.7 1387.65 231.7V231.862Z" fill="#151515"/>
<path d="M1281.88 231.862H1281.03L1269.28 231.822L1273.91 209.225C1273.91 209.225 1256.06 231.862 1217.35 231.862C1200.92 231.862 1187.66 226.376 1178.92 215.971C1169.28 204.51 1165.83 187.806 1169.16 168.867L1183.35 88.4776H1166.64L1170.22 68.1973H1210.03L1192.46 167.689C1190.31 180.003 1192.75 191.098 1199.38 198.983C1205.8 206.624 1215.64 210.85 1227.11 210.85C1253.17 210.85 1276.39 190.814 1281.11 164.193L1298.03 68.1973H1321.13L1295.87 211.541H1317.06L1313.48 231.822H1281.84L1281.88 231.862Z" fill="#151515"/>
<path d="M919.32 231.862L936.765 132.98C938.879 120.869 936.439 109.855 929.77 101.971C923.183 94.1267 913.139 89.8187 901.468 89.8187C875.443 89.8187 851.613 109.489 847.181 134.606L830.02 231.862H806.923L844.131 20.2803H818.39L821.969 0H871.01L855.354 88.2743C855.354 88.2743 872.515 68.2378 910.78 68.2378C927.94 68.2378 941.4 73.8057 950.265 84.3726C959.903 95.8743 963.44 112.497 960.147 131.192L945.955 211.582H967.304L963.725 231.862H919.279H919.32Z" fill="#151515"/>
<path d="M1547.5 231.862C1525.26 231.862 1507.29 224.627 1495.49 210.931C1482.77 196.137 1478.17 174.597 1482.56 150.253C1487.36 123.754 1501.02 100.344 1520.67 85.6727C1536.2 74.0898 1555.72 68.3999 1575.77 68.3999C1597.4 68.3999 1614.8 75.3497 1626.15 88.5177C1640.46 106.644 1641.72 126.233 1638.59 147.936C1636.76 159.113 1635.79 162.08 1635.79 162.08H1533.92L1538.35 139.117H1615.62L1615.86 137.572C1617.49 122.941 1614.19 110.668 1606.22 102.051C1598.42 93.5573 1586.22 88.9241 1571.86 88.9241C1546.98 88.9241 1517.41 109.286 1509.93 137.369C1509.85 137.654 1507.78 144.644 1507.17 147.692C1506.56 150.781 1505.46 158.584 1505.46 158.584C1503.18 174.638 1506.43 188.131 1514.85 197.519C1523.02 206.664 1535.79 211.5 1551.77 211.5C1574.79 211.5 1596.26 200.364 1606.51 183.132H1630.46C1615.5 212.801 1583.09 231.943 1547.55 231.943L1547.5 231.862Z" fill="#151515"/>
</svg>
