<svg width="48" height="48" viewBox="0 0 48 48" fill="none" xmlns="http://www.w3.org/2000/svg">
<g clip-path="url(#clip0_50_720)">
<path d="M37.7059 0H10.2941C4.60883 0 0 4.60883 0 10.2941V37.7059C0 43.3912 4.60883 48 10.2941 48H37.7059C43.3912 48 48 43.3912 48 37.7059V10.2941C48 4.60883 43.3912 0 37.7059 0Z" fill="#FF2840"/>
<path d="M40.4527 13.4919H37.1421C36.8928 13.4919 36.653 13.6941 36.6107 13.9434L34.518 25.8223C34.1041 28.1595 32.0209 30.097 29.773 30.2381C28.5738 30.3133 27.5204 29.9089 26.8009 29.0953C26.0908 28.2959 25.7992 27.1672 26.0062 26.0057L28.1318 13.9434C28.1741 13.6941 28.0095 13.4919 27.7603 13.4919H24.3743C24.1251 13.4919 23.8853 13.6941 23.8429 13.9434L21.7503 25.8223C21.3364 28.1595 19.2767 30.097 17.0288 30.2381C15.3594 30.3462 13.9533 29.5092 13.3607 27.9244C13.1538 27.3742 13.135 26.744 13.2479 26.1138L14.7104 17.8042C15.1289 15.4247 13.5394 13.4919 11.1599 13.4919H8.25834C8.0091 13.4919 7.76927 13.6941 7.72694 13.9434L7.18143 17.0142C7.13911 17.2634 7.3037 17.4657 7.55294 17.4657H10.2617C10.4216 17.4657 10.5297 17.5973 10.5015 17.7572L9.09071 25.7705C8.27245 30.4074 11.0658 34.24 15.5145 34.494C15.6744 34.5034 15.8343 34.5081 15.9942 34.5081C18.4208 34.5081 20.9461 33.45 22.8883 31.6206C24.2709 33.5817 26.5987 34.6492 29.2463 34.494C33.7844 34.2353 37.9274 30.4027 38.7457 25.7705L40.8336 13.9434C40.876 13.6941 40.7114 13.4919 40.4621 13.4919H40.4527Z" fill="white"/>
</g>
<defs>
<clipPath id="clip0_50_720">
<rect width="48" height="48" fill="white"/>
</clipPath>
</defs>
</svg>
